<svg width="26" height="35" viewBox="0 0 26 35" fill="none" xmlns="http://www.w3.org/2000/svg">
<path d="M21.75 2.375C21.75 1.24609 20.7539 0.25 19.625 0.25C18.4297 0.25 17.5 1.24609 17.5 2.375V8.75H21.75V2.375ZM24.9375 10.875H1.5625C0.964844 10.875 0.5 11.3398 0.5 11.9375V14.0625C0.5 14.5938 0.964844 15.125 1.5625 15.125H2.625V17.25C2.625 22.2969 6.14453 26.6797 11.125 27.6758V34.25H15.375V27.6758C20.2891 26.6797 23.875 22.2969 23.875 17.25V15.125H24.9375C25.4688 15.125 26 14.5938 26 14.0625V11.9375C26 11.4062 25.4688 10.875 24.9375 10.875ZM9 2.375C9 1.24609 8.00391 0.25 6.875 0.25C5.67969 0.25 4.75 1.24609 4.75 2.375V8.75H9V2.375Z" fill="#BA261A"/>
</svg>
