<svg width="162" height="207" viewBox="0 0 162 207" fill="none" xmlns="http://www.w3.org/2000/svg">
<g opacity="0.5" filter="url(#filter0_f_1_1823)">
<path d="M28.2511 157.3L76.4945 182.595C77.8914 183.327 79.4443 183.709 81.0207 183.709C82.5971 183.709 84.15 183.327 85.5469 182.595L133.821 157.3C135.405 156.475 136.732 155.231 137.659 153.703C138.586 152.174 139.076 150.421 139.077 148.633V35.6678C139.078 34.3837 138.827 33.112 138.336 31.9254C137.846 30.7388 137.127 29.6607 136.221 28.7527C135.315 27.8447 134.238 27.1247 133.054 26.6337C131.869 26.1428 130.6 25.8906 129.318 25.8916H32.7696C30.1813 25.8916 27.6989 26.9216 25.8687 28.755C24.0385 30.5884 23.0103 33.075 23.0103 35.6678V148.633C23.0098 150.419 23.4981 152.172 24.422 153.7C25.346 155.228 26.6703 156.473 28.2511 157.3Z" fill="#3C444F" fill-opacity="0.6"/>
</g>
<path d="M133.516 0.84082H28.6049C25.7924 0.84082 23.0951 1.95809 21.1063 3.94686C19.1175 5.93562 18.0002 8.63296 18.0002 11.4455V133.992C18.0014 135.928 18.5318 137.826 19.5341 139.482C20.5364 141.138 21.9724 142.488 23.6867 143.386L76.1423 170.85C77.6602 171.644 79.3476 172.058 81.0605 172.058C82.7734 172.058 84.4609 171.644 85.9788 170.85L138.434 143.411C140.149 142.513 141.586 141.163 142.588 139.508C143.591 137.852 144.121 135.953 144.121 134.017V11.4455C144.121 8.63296 143.004 5.93562 141.015 3.94686C139.026 1.95809 136.329 0.84082 133.516 0.84082Z" fill="#3C444F"/>
<path d="M129.95 6.66017H32.1698C30.8715 6.65797 29.5856 6.91192 28.3857 7.40747C27.1857 7.90301 26.0953 8.63042 25.177 9.54803C24.2586 10.4656 23.5303 11.5554 23.0337 12.7549C22.5371 13.9545 22.2821 15.2401 22.2832 16.5384V130.768C22.2814 132.574 22.7748 134.345 23.7097 135.889C24.6446 137.434 25.9852 138.692 27.5856 139.528L76.4756 165.087C77.8924 165.831 79.4684 166.219 81.0682 166.219C82.6681 166.219 84.244 165.831 85.6608 165.087L134.551 139.511C136.144 138.673 137.479 137.416 138.41 135.875C139.342 134.335 139.835 132.569 139.837 130.768V16.5384C139.837 15.2405 139.581 13.9553 139.084 12.7562C138.587 11.5572 137.858 10.4679 136.94 9.55048C136.022 8.6331 134.932 7.90564 133.733 7.40971C132.533 6.91377 131.248 6.65907 129.95 6.66017Z" fill="#074FFE"/>
<path d="M31.0926 6.71777C28.6714 6.97943 26.4325 8.12695 24.8063 9.93966C23.1801 11.7524 22.2815 14.1023 22.2832 16.5375V130.767C22.2814 132.573 22.7748 134.344 23.7097 135.889C24.6446 137.433 25.9852 138.691 27.5856 139.527L76.4756 165.087C77.8924 165.83 79.4684 166.218 81.0682 166.218C82.6681 166.218 84.244 165.83 85.6608 165.087L134.551 139.51C136.144 138.672 137.479 137.415 138.41 135.874C139.342 134.334 139.835 132.568 139.837 130.767V130.45C40.7203 130.893 30.9172 43.091 31.0926 6.71777Z" fill="#0140DA"/>
<path d="M38.7835 25.7233C40.5913 25.7233 42.0568 24.2578 42.0568 22.45C42.0568 20.6422 40.5913 19.1768 38.7835 19.1768C36.9757 19.1768 35.5103 20.6422 35.5103 22.45C35.5103 24.2578 36.9757 25.7233 38.7835 25.7233Z" fill="white"/>
<path d="M63.3077 22.45C63.3077 23.0974 63.1158 23.7302 62.7561 24.2685C62.3964 24.8068 61.8852 25.2264 61.2871 25.4741C60.689 25.7219 60.0309 25.7867 59.3959 25.6604C58.761 25.5341 58.1777 25.2223 57.7199 24.7646C57.2622 24.3068 56.9504 23.7235 56.8241 23.0886C56.6978 22.4536 56.7626 21.7955 57.0104 21.1974C57.2581 20.5993 57.6777 20.0881 58.216 19.7284C58.7542 19.3687 59.3871 19.1768 60.0345 19.1768C60.4643 19.1768 60.89 19.2614 61.2871 19.4259C61.6842 19.5904 62.0451 19.8315 62.349 20.1355C62.653 20.4394 62.8941 20.8003 63.0586 21.1974C63.2231 21.5945 63.3077 22.0202 63.3077 22.45Z" fill="white"/>
<path d="M81.2859 25.7233C83.0937 25.7233 84.5592 24.2578 84.5592 22.45C84.5592 20.6422 83.0937 19.1768 81.2859 19.1768C79.4782 19.1768 78.0127 20.6422 78.0127 22.45C78.0127 24.2578 79.4782 25.7233 81.2859 25.7233Z" fill="white"/>
<path d="M105.785 22.45C105.785 23.0974 105.593 23.7302 105.234 24.2685C104.874 24.8068 104.363 25.2264 103.765 25.4741C103.167 25.7219 102.508 25.7867 101.873 25.6604C101.238 25.5341 100.655 25.2223 100.197 24.7646C99.7397 24.3068 99.428 23.7235 99.3017 23.0886C99.1754 22.4536 99.2402 21.7955 99.4879 21.1974C99.7357 20.5993 100.155 20.0881 100.693 19.7284C101.232 19.3687 101.865 19.1768 102.512 19.1768C102.942 19.1768 103.368 19.2614 103.765 19.4259C104.162 19.5904 104.523 19.8315 104.827 20.1355C105.131 20.4394 105.372 20.8003 105.536 21.1974C105.701 21.5945 105.785 22.0202 105.785 22.45Z" fill="white"/>
<path d="M123.788 25.7233C125.596 25.7233 127.061 24.2578 127.061 22.45C127.061 20.6422 125.596 19.1768 123.788 19.1768C121.98 19.1768 120.515 20.6422 120.515 22.45C120.515 24.2578 121.98 25.7233 123.788 25.7233Z" fill="white"/>
<path d="M81.0604 158.316C82.8682 158.316 84.3337 156.85 84.3337 155.043C84.3337 153.235 82.8682 151.769 81.0604 151.769C79.2527 151.769 77.7872 153.235 77.7872 155.043C77.7872 156.85 79.2527 158.316 81.0604 158.316Z" fill="white"/>
<g filter="url(#filter1_d_1_1823)">
<path d="M45.1892 72.8188C43.778 72.8188 42.6219 72.5861 41.7211 72.1207C40.8203 71.6403 40.1897 70.9497 39.8294 70.0488C39.4841 69.133 39.4241 68.0295 39.6493 66.7384C39.7694 66.0928 39.9045 65.4022 40.0546 64.6665C40.2198 63.9309 40.3849 63.2327 40.5501 62.5722C40.8503 61.311 41.3683 60.2376 42.104 59.3518C42.8546 58.466 43.7855 57.7904 44.8965 57.325C46.0075 56.8445 47.2536 56.6043 48.6348 56.6043C49.7458 56.6043 50.6916 56.7469 51.4723 57.0322C52.2681 57.3175 52.8986 57.6928 53.364 58.1582C53.8445 58.6086 54.1673 59.1041 54.3324 59.6445C54.5126 60.185 54.5651 60.7105 54.49 61.2209C54.46 61.3561 54.385 61.4687 54.2648 61.5587C54.1598 61.6488 54.0396 61.6939 53.9045 61.6939H51.0895C50.9394 61.6939 50.8268 61.6638 50.7517 61.6038C50.6916 61.5437 50.6391 61.4537 50.5941 61.3335C50.564 61.0783 50.4589 60.8081 50.2788 60.5228C50.1136 60.2376 49.8509 60.0049 49.4906 59.8247C49.1303 59.6295 48.6348 59.5319 48.0042 59.5319C47.0734 59.5319 46.2777 59.7797 45.6171 60.2751C44.9565 60.7705 44.4911 61.5738 44.2209 62.6848C44.0707 63.3303 43.9206 63.9834 43.7705 64.644C43.6353 65.3046 43.5077 65.9652 43.3876 66.6258C43.1774 67.7818 43.2975 68.6151 43.7479 69.1255C44.2133 69.636 44.919 69.8912 45.8648 69.8912C46.4804 69.8912 47.0509 69.7861 47.5764 69.5759C48.1168 69.3507 48.5748 69.0129 48.9501 68.5625C49.3404 68.0971 49.6107 67.5041 49.7608 66.7834L49.8734 66.2204H47.4412C47.2761 66.2204 47.1485 66.1679 47.0584 66.0628C46.9833 65.9427 46.9683 65.8076 47.0134 65.6574L47.3061 64.2161C47.3361 64.051 47.4112 63.9159 47.5313 63.8108C47.6664 63.7057 47.8166 63.6531 47.9817 63.6531H53.4992C53.6643 63.6531 53.7844 63.7057 53.8595 63.8108C53.9496 63.9159 53.9796 64.051 53.9496 64.2161L53.4316 66.6708C53.1614 67.962 52.6359 69.0655 51.8552 69.9813C51.0895 70.8971 50.1362 71.6027 48.9951 72.0982C47.8541 72.5786 46.5855 72.8188 45.1892 72.8188ZM54.2414 72.5936C54.0763 72.5936 53.9487 72.5411 53.8586 72.436C53.7835 72.3309 53.761 72.1958 53.791 72.0306L56.9213 57.3925C56.9514 57.2274 57.0264 57.0923 57.1465 56.9872C57.2667 56.8821 57.4093 56.8295 57.5744 56.8295H60.0967C60.2618 56.8295 60.3819 56.8821 60.457 56.9872C60.5471 57.0923 60.5771 57.2274 60.5471 57.3925L57.9573 69.5534H64.9385C65.1037 69.5534 65.2238 69.606 65.2988 69.711C65.3889 69.8161 65.4114 69.9513 65.3664 70.1164L64.961 72.0306C64.931 72.1958 64.8559 72.3309 64.7358 72.436C64.6157 72.5411 64.4731 72.5936 64.308 72.5936H54.2414ZM72.1295 72.8188C71.1987 72.8188 70.3354 72.6912 69.5397 72.436C68.759 72.1808 68.0984 71.7979 67.5579 71.2875C67.0324 70.777 66.6571 70.1389 66.4319 69.3732C66.2217 68.6076 66.2067 67.7068 66.3868 66.6708C66.4919 66.0252 66.6121 65.3872 66.7472 64.7566C66.8973 64.111 67.0474 63.4579 67.1976 62.7974C67.693 60.7705 68.5788 59.2317 69.855 58.1807C71.1461 57.1298 72.8501 56.6043 74.967 56.6043C75.9129 56.6043 76.7686 56.7394 77.5343 57.0097C78.315 57.2649 78.9756 57.6553 79.5161 58.1807C80.0566 58.7062 80.4319 59.3518 80.6421 60.1175C80.8673 60.8831 80.8898 61.7764 80.7097 62.7974C80.6046 63.4579 80.477 64.111 80.3268 64.7566C80.1917 65.3872 80.0491 66.0252 79.8989 66.6708C79.3885 68.7427 78.4877 70.2891 77.1965 71.31C75.9204 72.3159 74.2314 72.8188 72.1295 72.8188ZM72.3772 69.8912C73.278 69.8912 74.0662 69.6285 74.7418 69.103C75.4324 68.5775 75.9204 67.7293 76.2056 66.5582C76.3708 65.8976 76.5134 65.2821 76.6335 64.7116C76.7686 64.126 76.8887 63.5105 76.9938 62.8649C77.204 61.6939 77.1064 60.8456 76.7011 60.3201C76.2957 59.7947 75.6351 59.5319 74.7193 59.5319C73.8185 59.5319 73.0303 59.7947 72.3547 60.3201C71.6791 60.8456 71.1911 61.6939 70.8909 62.8649C70.7407 63.5105 70.5981 64.126 70.463 64.7116C70.3429 65.2821 70.2228 65.8976 70.1027 66.5582C69.8925 67.7293 69.9826 68.5775 70.3729 69.103C70.7783 69.6285 71.4464 69.8912 72.3772 69.8912ZM81.1178 72.5936C80.9527 72.5936 80.8251 72.5411 80.735 72.436C80.6599 72.3309 80.6374 72.1958 80.6674 72.0306L83.7752 57.3925C83.8053 57.2274 83.8803 57.0923 84.0004 56.9872C84.1355 56.8821 84.2857 56.8295 84.4508 56.8295H90.9141C92.0852 56.8295 93.046 57.0097 93.7967 57.37C94.5624 57.7303 95.1029 58.2408 95.4181 58.9014C95.7484 59.562 95.8235 60.3352 95.6434 61.2209C95.5082 61.8065 95.2905 62.3094 94.9903 62.7298C94.705 63.1502 94.3897 63.4955 94.0444 63.7657C93.6991 64.021 93.3763 64.2086 93.0761 64.3287C93.6015 64.629 94.0219 65.0869 94.3372 65.7025C94.6525 66.303 94.72 67.0311 94.5399 67.8869C94.3447 68.8328 93.9919 69.6585 93.4814 70.3641C92.971 71.0698 92.2878 71.6178 91.4321 72.0081C90.5763 72.3985 89.5179 72.5936 88.2567 72.5936H81.1178ZM84.6986 69.9362H88.1441C88.8498 69.9362 89.4428 69.7336 89.9232 69.3282C90.4037 68.9078 90.7039 68.4199 90.824 67.8644C90.9592 67.2789 90.8916 66.7909 90.6214 66.4006C90.3661 65.9952 89.8407 65.7925 89.0449 65.7925H85.5994L84.6986 69.9362ZM86.1398 63.2027H89.3152C90.0058 63.2027 90.5763 63.0301 91.0267 62.6848C91.4771 62.3244 91.7699 61.8665 91.905 61.311C92.0101 60.7555 91.935 60.3126 91.6798 59.9823C91.4396 59.652 90.9742 59.4869 90.2836 59.4869H86.928L86.1398 63.2027ZM94.2798 72.5936C94.0997 72.5936 93.9796 72.5186 93.9195 72.3684C93.8444 72.2183 93.8519 72.0682 93.942 71.918L102.365 57.4376C102.455 57.2724 102.575 57.1298 102.725 57.0097C102.875 56.8896 103.07 56.8295 103.31 56.8295H106.351C106.591 56.8295 106.764 56.8896 106.869 57.0097C106.989 57.1298 107.056 57.2724 107.071 57.4376L109.346 71.918C109.391 72.1282 109.353 72.2934 109.233 72.4135C109.128 72.5336 108.993 72.5936 108.828 72.5936H106.508C106.298 72.5936 106.14 72.5411 106.035 72.436C105.945 72.3309 105.893 72.2108 105.878 72.0757L105.427 69.621H99.0766L97.5678 72.1432C97.5077 72.2483 97.4101 72.3534 97.275 72.4585C97.1549 72.5486 96.9898 72.5936 96.7796 72.5936H94.2798ZM100.54 66.7159H105.202L104.234 60.2526L100.54 66.7159ZM110.809 72.5936C110.644 72.5936 110.517 72.5411 110.426 72.436C110.351 72.3309 110.329 72.1958 110.359 72.0306L113.489 57.3925C113.519 57.2274 113.594 57.0923 113.714 56.9872C113.834 56.8821 113.977 56.8295 114.142 56.8295H116.665C116.83 56.8295 116.95 56.8821 117.025 56.9872C117.115 57.0923 117.145 57.2274 117.115 57.3925L114.525 69.5534H121.506C121.671 69.5534 121.792 69.606 121.867 69.711C121.957 69.8161 121.979 69.9513 121.934 70.1164L121.529 72.0306C121.499 72.1958 121.424 72.3309 121.304 72.436C121.184 72.5411 121.041 72.5936 120.876 72.5936H110.809Z" fill="white"/>
</g>
<g filter="url(#filter2_d_1_1823)">
<path d="M42.3425 101.487C41.1274 101.487 39.9882 101.335 38.9249 101.031C37.8617 100.709 36.9598 100.234 36.2193 99.6074C35.4788 98.9618 34.9567 98.1454 34.6529 97.1581C34.3681 96.1708 34.3681 95.0031 34.6529 93.6551L37.1307 82.0067C37.1686 81.7979 37.2731 81.627 37.4439 81.4941C37.6148 81.3422 37.8047 81.2663 38.0135 81.2663H42.6273C42.8362 81.2663 42.9975 81.3422 43.1115 81.4941C43.2444 81.627 43.2918 81.7979 43.2539 82.0067L40.7761 93.5696C40.5673 94.5379 40.6242 95.2689 40.947 95.7626C41.2887 96.2562 41.9248 96.5031 42.8551 96.5031C43.7665 96.5031 44.5165 96.2562 45.1051 95.7626C45.6937 95.2689 46.0829 94.5379 46.2727 93.5696L48.7505 82.0067C48.7885 81.7979 48.8929 81.627 49.0638 81.4941C49.2347 81.3422 49.4245 81.2663 49.6334 81.2663H54.2756C54.4845 81.2663 54.6459 81.3422 54.7598 81.4941C54.8737 81.627 54.9117 81.7979 54.8737 82.0067L52.3959 93.6551C51.8074 96.3512 50.7061 98.3353 49.0923 99.6074C47.4974 100.861 45.2475 101.487 42.3425 101.487ZM61.3202 101.487C59.3456 101.487 57.7127 101.212 56.4216 100.661C55.1495 100.111 54.2382 99.389 53.6876 98.4967C53.1369 97.5853 52.9471 96.617 53.118 95.5917C53.1559 95.4208 53.2414 95.2784 53.3743 95.1645C53.5072 95.0506 53.6591 94.9936 53.83 94.9936H58.3583C58.6431 94.9936 58.8519 95.0411 58.9848 95.136C59.1177 95.212 59.2507 95.3259 59.3836 95.4778C59.4975 95.6866 59.6494 95.886 59.8392 96.0759C60.0481 96.2468 60.3139 96.3892 60.6367 96.5031C60.9784 96.598 61.3772 96.6455 61.8328 96.6455C62.7062 96.6455 63.4087 96.5315 63.9404 96.3037C64.491 96.0569 64.8137 95.7246 64.9087 95.3069C64.9846 94.9841 64.9087 94.7183 64.6808 94.5095C64.472 94.3006 64.0733 94.1107 63.4847 93.9399C62.9151 93.769 62.1366 93.5886 61.1493 93.3987C59.7253 93.1519 58.5387 92.7532 57.5893 92.2026C56.659 91.652 56.0039 90.94 55.6242 90.0666C55.2445 89.1742 55.1875 88.1205 55.4533 86.9053C55.8331 85.0636 56.8109 83.6206 58.3868 82.5763C59.9627 81.5131 62.0037 80.9815 64.51 80.9815C65.7631 80.9815 66.8928 81.1618 67.8991 81.5226C68.9054 81.8833 69.7503 82.358 70.4338 82.9466C71.1363 83.5162 71.6489 84.1333 71.9717 84.7978C72.3135 85.4623 72.4274 86.0984 72.3135 86.7059C72.2945 86.8768 72.2091 87.0287 72.0572 87.1616C71.9243 87.2755 71.7819 87.3325 71.63 87.3325H66.8738C66.627 87.3325 66.4276 87.2945 66.2757 87.2186C66.1428 87.1426 66.0194 87.0192 65.9055 86.8483C65.8675 86.5825 65.6776 86.3452 65.3359 86.1363C65.0131 85.9275 64.5764 85.8231 64.0258 85.8231C63.3803 85.8231 62.8486 85.937 62.4309 86.1648C62.0322 86.3737 61.7854 86.687 61.6904 87.1047C61.6335 87.3895 61.6904 87.6363 61.8613 87.8451C62.0322 88.054 62.3645 88.2439 62.8581 88.4147C63.3518 88.5666 64.0543 88.7375 64.9656 88.9274C66.7314 89.1932 68.1079 89.6014 69.0952 90.152C70.1015 90.7026 70.7661 91.4146 71.0888 92.288C71.4306 93.1424 71.4781 94.1677 71.2312 95.3639C70.7945 97.3765 69.7408 98.9049 68.07 99.9492C66.4181 100.974 64.1682 101.487 61.3202 101.487ZM69.9481 101.202C69.7392 101.202 69.5873 101.117 69.4924 100.946C69.3975 100.756 69.407 100.566 69.5209 100.376L79.8876 82.1491C80.0015 81.9403 80.1724 81.7409 80.4002 81.5511C80.6281 81.3612 80.9224 81.2663 81.2831 81.2663H86.6374C86.9981 81.2663 87.2544 81.3612 87.4063 81.5511C87.5582 81.7409 87.6437 81.9403 87.6626 82.1491L90.3113 100.376C90.3493 100.623 90.2828 100.823 90.1119 100.974C89.96 101.126 89.7797 101.202 89.5708 101.202H85.2988C84.976 101.202 84.7482 101.126 84.6153 100.974C84.4824 100.823 84.4064 100.671 84.3874 100.519L83.9887 98.1549H77.1535L75.7295 100.547C75.6536 100.699 75.5207 100.851 75.3308 101.003C75.1599 101.136 74.9131 101.202 74.5903 101.202H69.9481ZM79.4604 93.3418H83.7039L82.9634 86.9338L79.4604 93.3418ZM99.276 101.487C97.3964 101.487 95.8394 101.202 94.6053 100.633C93.3902 100.044 92.5263 99.1707 92.0136 98.0125C91.501 96.8543 91.3966 95.4208 91.7004 93.712C91.8333 92.9146 91.9946 92.0602 92.1845 91.1488C92.3934 90.2185 92.6022 89.3451 92.8111 88.5287C93.2098 86.8768 93.9123 85.4908 94.9186 84.3706C95.9439 83.2504 97.197 82.4055 98.678 81.8359C100.159 81.2663 101.811 80.9815 103.633 80.9815C105.095 80.9815 106.358 81.1523 107.421 81.4941C108.504 81.8359 109.377 82.301 110.041 82.8896C110.725 83.4782 111.2 84.1427 111.465 84.8832C111.731 85.6047 111.798 86.3547 111.665 87.1331C111.627 87.304 111.532 87.4464 111.38 87.5603C111.247 87.6743 111.095 87.7312 110.924 87.7312H105.684C105.475 87.7312 105.314 87.7027 105.2 87.6458C105.105 87.5888 105.029 87.5034 104.972 87.3895C104.934 87.1996 104.839 86.9813 104.687 86.7344C104.535 86.4876 104.298 86.2787 103.975 86.1079C103.652 85.918 103.197 85.8231 102.608 85.8231C101.716 85.8231 100.966 86.0509 100.358 86.5066C99.7697 86.9623 99.3615 87.6838 99.1336 88.6711C98.9438 89.4685 98.7539 90.2754 98.564 91.0919C98.3932 91.9083 98.2318 92.7342 98.0799 93.5696C97.89 94.6519 98.0039 95.4398 98.4216 95.9335C98.8583 96.4081 99.5134 96.6455 100.387 96.6455C100.994 96.6455 101.545 96.5505 102.039 96.3607C102.532 96.1708 102.959 95.8765 103.32 95.4778C103.681 95.0601 103.928 94.5285 104.061 93.8829L104.118 93.5981H102.096C101.887 93.5981 101.725 93.5222 101.611 93.3703C101.497 93.2184 101.469 93.0475 101.526 92.8576L102.067 90.209C102.105 90.0001 102.209 89.8293 102.38 89.6963C102.57 89.5445 102.77 89.4685 102.978 89.4685H110.469C110.678 89.4685 110.839 89.5445 110.953 89.6963C111.067 89.8293 111.105 90.0001 111.067 90.209L110.326 93.6836C109.985 95.3544 109.292 96.7689 108.247 97.9271C107.203 99.0853 105.912 99.9681 104.374 100.576C102.836 101.183 101.137 101.487 99.276 101.487ZM110.848 101.202C110.639 101.202 110.469 101.136 110.336 101.003C110.222 100.851 110.184 100.671 110.222 100.462L114.18 82.0067C114.218 81.7979 114.323 81.627 114.494 81.4941C114.665 81.3422 114.854 81.2663 115.063 81.2663H129.019C129.227 81.2663 129.389 81.3422 129.503 81.4941C129.617 81.627 129.655 81.7979 129.617 82.0067L128.905 85.3674C128.848 85.5573 128.734 85.7281 128.563 85.88C128.392 86.0319 128.202 86.1079 127.993 86.1079H119.193L118.566 88.9274H126.74C126.949 88.9274 127.11 89.0033 127.224 89.1552C127.357 89.2881 127.405 89.459 127.367 89.6679L126.683 92.7437C126.645 92.9526 126.531 93.1329 126.341 93.2848C126.171 93.4177 125.981 93.4842 125.772 93.4842H117.598L117 96.3607H126.028C126.237 96.3607 126.398 96.4366 126.512 96.5885C126.626 96.7404 126.664 96.9208 126.626 97.1296L125.914 100.462C125.876 100.671 125.772 100.851 125.601 101.003C125.43 101.136 125.24 101.202 125.031 101.202H110.848Z" fill="white"/>
</g>
<defs>
<filter id="filter0_f_1_1823" x="0.600422" y="3.48177" width="160.887" height="202.637" filterUnits="userSpaceOnUse" color-interpolation-filters="sRGB">
<feFlood flood-opacity="0" result="BackgroundImageFix"/>
<feBlend mode="normal" in="SourceGraphic" in2="BackgroundImageFix" result="shape"/>
<feGaussianBlur stdDeviation="11.2049" result="effect1_foregroundBlur_1_1823"/>
</filter>
<filter id="filter1_d_1_1823" x="36.8906" y="55.636" width="87.5321" height="21.0563" filterUnits="userSpaceOnUse" color-interpolation-filters="sRGB">
<feFlood flood-opacity="0" result="BackgroundImageFix"/>
<feColorMatrix in="SourceAlpha" type="matrix" values="0 0 0 0 0 0 0 0 0 0 0 0 0 0 0 0 0 0 127 0" result="hardAlpha"/>
<feOffset dy="1.45254"/>
<feGaussianBlur stdDeviation="1.21045"/>
<feComposite in2="hardAlpha" operator="out"/>
<feColorMatrix type="matrix" values="0 0 0 0 0 0 0 0 0 0 0 0 0 0 0 0 0 0 0.18 0"/>
<feBlend mode="normal" in2="BackgroundImageFix" result="effect1_dropShadow_1_1823"/>
<feBlend mode="normal" in="SourceGraphic" in2="effect1_dropShadow_1_1823" result="shape"/>
</filter>
<filter id="filter2_d_1_1823" x="30.0506" y="79.3114" width="103.798" height="28.8558" filterUnits="userSpaceOnUse" color-interpolation-filters="sRGB">
<feFlood flood-opacity="0" result="BackgroundImageFix"/>
<feColorMatrix in="SourceAlpha" type="matrix" values="0 0 0 0 0 0 0 0 0 0 0 0 0 0 0 0 0 0 127 0" result="hardAlpha"/>
<feOffset dy="2.50504"/>
<feGaussianBlur stdDeviation="2.08754"/>
<feComposite in2="hardAlpha" operator="out"/>
<feColorMatrix type="matrix" values="0 0 0 0 0 0 0 0 0 0 0 0 0 0 0 0 0 0 0.18 0"/>
<feBlend mode="normal" in2="BackgroundImageFix" result="effect1_dropShadow_1_1823"/>
<feBlend mode="normal" in="SourceGraphic" in2="effect1_dropShadow_1_1823" result="shape"/>
</filter>
</defs>
</svg>
