<svg width="187" height="185" viewBox="0 0 187 185" fill="none" xmlns="http://www.w3.org/2000/svg">
<g opacity="0.5" filter="url(#filter0_f_1_1810)">
<path d="M148.331 27.1396H38.6628C32.6633 27.1396 27.7998 33.409 27.7998 41.1427V143.631C27.7998 151.365 32.6633 157.634 38.6628 157.634H148.331C154.331 157.634 159.194 151.365 159.194 143.631V41.1427C159.194 33.409 154.331 27.1396 148.331 27.1396Z" fill="#3C444F" fill-opacity="0.6"/>
</g>
<path d="M164.03 11.8408H22.0623C14.2959 11.8408 8 18.2399 8 26.1336V130.742C8 138.636 14.2959 145.035 22.0623 145.035H164.03C171.797 145.035 178.093 138.636 178.093 130.742V26.1336C178.093 18.2399 171.797 11.8408 164.03 11.8408Z" fill="#3C444F"/>
<path d="M159.52 19.0405H26.5733C23.1136 19.0098 19.783 20.3353 17.313 22.726C14.8431 25.1167 13.4357 28.377 13.4001 31.7909V125.084C13.4357 128.498 14.8431 131.758 17.313 134.149C19.783 136.539 23.1136 137.865 26.5733 137.834H159.52C161.233 137.851 162.933 137.534 164.523 136.902C166.112 136.27 167.56 135.335 168.783 134.151C170.006 132.967 170.981 131.557 171.652 130.001C172.323 128.445 172.677 126.774 172.693 125.084V31.7909C172.677 30.1002 172.323 28.4292 171.652 26.8733C170.981 25.3175 170.006 23.9074 168.783 22.7234C167.56 21.5394 166.112 20.6047 164.523 19.9728C162.933 19.3409 161.233 19.0241 159.52 19.0405Z" fill="#8100B4"/>
<path d="M19.0959 20.8397C17.3484 21.9999 15.9152 23.5673 14.9221 25.4044C13.929 27.2414 13.4063 29.292 13.4001 31.3759V125.034C13.4357 128.461 14.8431 131.734 17.313 134.134C19.783 136.534 23.1136 137.865 26.5733 137.834H159.52C161.233 137.85 162.933 137.532 164.523 136.898C166.112 136.264 167.56 135.325 168.783 134.137C170.006 132.948 170.981 131.532 171.652 129.971C172.323 128.409 172.677 126.731 172.693 125.034V116.298C31.0543 119.935 17.8001 51.9758 19.0959 20.8397Z" fill="#66008F"/>
<path d="M27.2864 23.9541L28.8073 28.6159H33.7031L29.7432 31.4958L31.2552 36.1576L27.2864 33.2777L23.3265 36.1576L24.8385 31.4958L20.8696 28.6159H25.7744L27.2864 23.9541Z" fill="white"/>
<path d="M158.177 23.9541L159.698 28.6159H164.594L160.625 31.4958L162.146 36.1576L158.177 33.2777L154.217 36.1576L155.729 31.4958L151.76 28.6159H156.665L158.177 23.9541Z" fill="white"/>
<path d="M27.2864 119.034L28.8073 123.705H33.7031L29.7432 126.585L31.2552 131.247L27.2864 128.367L23.3265 131.247L24.8385 126.585L20.8696 123.705H25.7744L27.2864 119.034Z" fill="white"/>
<path d="M158.177 119.034L159.698 123.705H164.594L160.625 126.585L162.146 131.247L158.177 128.367L154.217 131.247L155.729 126.585L151.76 123.705H156.665L158.177 119.034Z" fill="white"/>
<g filter="url(#filter1_d_1_1810)">
<path d="M65.0478 65.2532C64.8857 65.2532 64.7605 65.2016 64.6721 65.0985C64.5984 64.9954 64.5763 64.8628 64.6058 64.7007L67.6555 50.3363C67.6849 50.1742 67.7586 50.0417 67.8764 49.9385C68.009 49.8354 68.1564 49.7838 68.3184 49.7838H78.1967C78.3588 49.7838 78.4766 49.8354 78.5503 49.9385C78.6387 50.0417 78.6682 50.1742 78.6387 50.3363L78.2188 52.2368C78.1893 52.3842 78.1157 52.5094 77.9978 52.6125C77.88 52.7156 77.74 52.7672 77.5779 52.7672H70.6167L69.8212 56.5019H76.3183C76.4803 56.5019 76.5982 56.5535 76.6719 56.6566C76.7603 56.7598 76.7897 56.8924 76.7603 57.0544L76.3625 58.9328C76.3478 59.0802 76.2741 59.2054 76.1415 59.3085C76.0089 59.4117 75.8616 59.4632 75.6995 59.4632H69.1803L68.0753 64.7007C68.0459 64.8628 67.9648 64.9954 67.8322 65.0985C67.7144 65.2016 67.5744 65.2532 67.4124 65.2532H65.0478ZM77.9609 65.2532C77.8135 65.2532 77.6957 65.2016 77.6073 65.0985C77.5336 64.9954 77.5115 64.8628 77.541 64.7007L80.5907 50.3363C80.6201 50.1742 80.7012 50.0417 80.8337 49.9385C80.9663 49.8354 81.1063 49.7838 81.2536 49.7838H87.132C88.9736 49.7838 90.3363 50.2111 91.2203 51.0656C92.1043 51.9053 92.3768 53.1208 92.038 54.7119C91.8022 55.7874 91.3455 56.6861 90.6678 57.408C90.0049 58.1299 89.2093 58.6677 88.2811 59.0212L90.2258 64.546C90.2406 64.5902 90.2479 64.627 90.2479 64.6565C90.2479 64.686 90.2406 64.7302 90.2258 64.7891C90.2111 64.907 90.1448 65.0175 90.027 65.1206C89.9091 65.209 89.7912 65.2532 89.6734 65.2532H87.1983C86.9331 65.2532 86.7489 65.1869 86.6458 65.0543C86.5574 64.907 86.4911 64.7744 86.4469 64.6565L84.8337 59.5958H82.1597L81.0768 64.7007C81.0474 64.8628 80.9663 64.9954 80.8337 65.0985C80.7012 65.2016 80.5538 65.2532 80.3918 65.2532H77.9609ZM82.7564 56.7892H85.585C86.3806 56.7892 87.0141 56.6051 87.4856 56.2368C87.957 55.8684 88.259 55.3528 88.3916 54.6898C88.539 54.0269 88.4579 53.5038 88.1485 53.1208C87.8539 52.7377 87.3014 52.5462 86.4911 52.5462H83.6403L82.7564 56.7892ZM91.8532 65.2532C91.6912 65.2532 91.5659 65.2016 91.4776 65.0985C91.4039 64.9954 91.3818 64.8628 91.4113 64.7007L94.4609 50.3363C94.4904 50.1742 94.5641 50.0417 94.6819 49.9385C94.8145 49.8354 94.9618 49.7838 95.1239 49.7838H105.135C105.297 49.7838 105.415 49.8354 105.488 49.9385C105.577 50.0417 105.606 50.1742 105.577 50.3363L105.223 52.1042C105.179 52.2663 105.091 52.3989 104.958 52.502C104.84 52.6051 104.7 52.6567 104.538 52.6567H97.4001L96.6487 56.1042H103.323C103.485 56.1042 103.603 56.1557 103.676 56.2589C103.765 56.362 103.794 56.4946 103.765 56.6566L103.411 58.292C103.382 58.4393 103.301 58.5719 103.168 58.6898C103.05 58.7929 102.91 58.8444 102.748 58.8444H96.0742L95.3228 62.3803H102.638C102.8 62.3803 102.917 62.4319 102.991 62.535C103.08 62.6381 103.109 62.7707 103.08 62.9328L102.704 64.7007C102.674 64.8628 102.593 64.9954 102.461 65.0985C102.343 65.2016 102.203 65.2532 102.041 65.2532H91.8532ZM104.889 65.2532C104.727 65.2532 104.602 65.2016 104.513 65.0985C104.44 64.9954 104.418 64.8628 104.447 64.7007L107.497 50.3363C107.526 50.1742 107.6 50.0417 107.718 49.9385C107.85 49.8354 107.998 49.7838 108.16 49.7838H118.171C118.333 49.7838 118.451 49.8354 118.524 49.9385C118.613 50.0417 118.642 50.1742 118.613 50.3363L118.259 52.1042C118.215 52.2663 118.126 52.3989 117.994 52.502C117.876 52.6051 117.736 52.6567 117.574 52.6567H110.436L109.685 56.1042H116.359C116.521 56.1042 116.638 56.1557 116.712 56.2589C116.8 56.362 116.83 56.4946 116.8 56.6566L116.447 58.292C116.417 58.4393 116.336 58.5719 116.204 58.6898C116.086 58.7929 115.946 58.8444 115.784 58.8444H109.11L108.359 62.3803H115.673C115.835 62.3803 115.953 62.4319 116.027 62.535C116.115 62.6381 116.145 62.7707 116.115 62.9328L115.74 64.7007C115.71 64.8628 115.629 64.9954 115.497 65.0985C115.379 65.2016 115.239 65.2532 115.077 65.2532H104.889Z" fill="white"/>
</g>
<g filter="url(#filter2_d_1_1810)">
<path d="M37.2443 98.2892C37.0144 98.2892 36.8514 98.1934 36.7556 98.0017C36.6598 97.81 36.6694 97.6184 36.7844 97.4267L47.4502 78.9699C47.5652 78.7591 47.7281 78.577 47.9389 78.4237C48.1497 78.2512 48.4181 78.165 48.7439 78.165H53.1712C53.497 78.165 53.727 78.2512 53.8612 78.4237C54.0145 78.577 54.1008 78.7591 54.1199 78.9699L56.9373 97.4267C56.9948 97.695 56.9469 97.9059 56.7936 98.0592C56.6403 98.2125 56.4678 98.2892 56.2761 98.2892H52.7975C52.51 98.2892 52.2992 98.2221 52.165 98.0879C52.05 97.9538 51.9733 97.7909 51.935 97.5992L51.4463 94.7531H43.7703L42.0454 97.6855C41.9496 97.8196 41.8154 97.9538 41.6429 98.0879C41.4896 98.2221 41.2692 98.2892 40.9817 98.2892H37.2443ZM45.8115 90.6132H51.1588L50.0951 83.0235L45.8115 90.6132ZM58.625 98.2892C58.4333 98.2892 58.28 98.2221 58.165 98.0879C58.05 97.9346 58.0117 97.7621 58.05 97.5705L62.0173 78.8837C62.0557 78.6729 62.1611 78.5004 62.3336 78.3662C62.5061 78.2321 62.6881 78.165 62.8798 78.165H66.6747C66.8855 78.165 67.0484 78.2321 67.1634 78.3662C67.2784 78.5004 67.3167 78.6729 67.2784 78.8837L64.0585 93.9481H72.7407C72.9515 93.9481 73.1144 94.0248 73.2294 94.1781C73.3444 94.3123 73.3731 94.4848 73.3156 94.6956L72.7119 97.5705C72.6736 97.7621 72.5682 97.9346 72.3957 98.0879C72.2424 98.2221 72.0603 98.2892 71.8495 98.2892H58.625ZM75.9516 98.2892C75.6257 98.2892 75.3862 98.1934 75.2328 98.0017C75.0795 97.81 75.0028 97.5896 75.0028 97.3405L75.6066 78.8262C75.6257 78.6537 75.7024 78.5004 75.8366 78.3662C75.9707 78.2321 76.1336 78.165 76.3253 78.165H79.8039C80.0722 78.165 80.2639 78.2225 80.3789 78.3375C80.513 78.4525 80.5705 78.625 80.5514 78.8549L80.0914 89.8945L83.5125 83.3973C83.6083 83.2439 83.7425 83.081 83.915 82.9085C84.0875 82.7169 84.3271 82.621 84.6337 82.621H86.6749C87.0007 82.621 87.2115 82.7169 87.3074 82.9085C87.4032 83.081 87.4607 83.2439 87.4799 83.3973L88.1986 89.9808L92.4534 78.7974C92.5876 78.3758 92.923 78.165 93.4596 78.165H97.1395C97.3503 78.165 97.494 78.2416 97.5707 78.395C97.6474 78.5483 97.6474 78.7112 97.5707 78.8837L90.7572 97.3405C90.6614 97.5896 90.4889 97.81 90.2397 98.0017C90.0098 98.1934 89.7318 98.2892 89.406 98.2892H86.6174C86.2916 98.2892 86.0616 98.2029 85.9274 98.0304C85.8124 97.858 85.7358 97.695 85.6974 97.5417L84.2887 89.3195L79.9189 97.5417C79.8422 97.695 79.6985 97.858 79.4877 98.0304C79.296 98.2029 79.0373 98.2892 78.7114 98.2892H75.9516ZM93.4821 98.2892C93.2521 98.2892 93.0892 98.1934 92.9933 98.0017C92.8975 97.81 92.9071 97.6184 93.0221 97.4267L103.688 78.9699C103.803 78.7591 103.966 78.577 104.177 78.4237C104.387 78.2512 104.656 78.165 104.982 78.165H109.409C109.735 78.165 109.965 78.2512 110.099 78.4237C110.252 78.577 110.338 78.7591 110.358 78.9699L113.175 97.4267C113.233 97.695 113.185 97.9059 113.031 98.0592C112.878 98.2125 112.705 98.2892 112.514 98.2892H109.035C108.748 98.2892 108.537 98.2221 108.403 98.0879C108.288 97.9538 108.211 97.7909 108.173 97.5992L107.684 94.7531H100.008L98.2831 97.6855C98.1873 97.8196 98.0531 97.9538 97.8807 98.0879C97.7273 98.2221 97.5069 98.2892 97.2194 98.2892H93.4821ZM102.049 90.6132H107.397L106.333 83.0235L102.049 90.6132ZM117.511 98.2892C117.3 98.2892 117.137 98.2221 117.022 98.0879C116.926 97.9346 116.897 97.7621 116.936 97.5705L118.229 91.3895L114.176 79.0849C114.099 78.8549 114.138 78.6441 114.291 78.4525C114.444 78.2608 114.645 78.165 114.895 78.165H118.287C118.574 78.165 118.776 78.2416 118.891 78.395C119.025 78.5291 119.111 78.6537 119.149 78.7687L121.679 86.1572L127.343 78.7687C127.42 78.6537 127.554 78.5291 127.745 78.395C127.937 78.2416 128.177 78.165 128.464 78.165H132.345C132.652 78.165 132.824 78.2704 132.863 78.4812C132.901 78.692 132.853 78.8933 132.719 79.0849L123.404 91.3895L122.082 97.5705C122.043 97.7621 121.938 97.9346 121.766 98.0879C121.612 98.2221 121.43 98.2892 121.219 98.2892H117.511ZM137.182 98.5767C135.285 98.5767 133.723 98.3084 132.496 97.7717C131.269 97.2351 130.388 96.5259 129.851 95.6443C129.334 94.7435 129.152 93.7948 129.305 92.7981C129.343 92.6448 129.42 92.5107 129.535 92.3957C129.669 92.2615 129.822 92.1944 129.995 92.1944H133.675C133.943 92.1944 134.135 92.2423 134.25 92.3382C134.365 92.434 134.48 92.5586 134.595 92.7119C134.671 92.9994 134.825 93.2773 135.055 93.5456C135.285 93.8139 135.601 94.0344 136.003 94.2068C136.425 94.3602 136.943 94.4368 137.556 94.4368C138.668 94.4368 139.559 94.2643 140.23 93.9194C140.9 93.5744 141.293 93.1048 141.408 92.5107C141.523 92.0698 141.447 91.7153 141.178 91.447C140.929 91.1786 140.479 90.9391 139.827 90.7282C139.195 90.4982 138.342 90.2682 137.268 90.0383C135.869 89.7316 134.719 89.31 133.819 88.7733C132.918 88.2175 132.285 87.5179 131.921 86.6746C131.576 85.8122 131.528 84.7868 131.777 83.5985C132.161 81.8352 133.109 80.4457 134.624 79.4299C136.138 78.395 138.112 77.8775 140.546 77.8775C141.772 77.8775 142.865 78.05 143.823 78.395C144.801 78.74 145.615 79.1999 146.267 79.7749C146.918 80.3499 147.388 80.9632 147.675 81.6148C147.963 82.2473 148.059 82.8702 147.963 83.4835C147.944 83.6368 147.867 83.7806 147.733 83.9147C147.599 84.0297 147.446 84.0872 147.273 84.0872H143.421C143.229 84.0872 143.057 84.0489 142.903 83.9722C142.769 83.8956 142.654 83.771 142.558 83.5985C142.558 83.1769 142.338 82.8127 141.897 82.5061C141.456 82.1802 140.872 82.0173 140.143 82.0173C139.319 82.0173 138.629 82.1707 138.073 82.4773C137.518 82.7648 137.173 83.2152 137.038 83.8285C136.943 84.2118 136.991 84.5472 137.182 84.8347C137.393 85.1222 137.776 85.3714 138.332 85.5822C138.907 85.793 139.702 86.0134 140.718 86.2434C142.386 86.5692 143.699 87.01 144.657 87.5659C145.615 88.1025 146.257 88.7829 146.583 89.607C146.928 90.4312 146.976 91.4374 146.727 92.6257C146.324 94.5806 145.309 96.0659 143.679 97.0817C142.05 98.0784 139.885 98.5767 137.182 98.5767Z" fill="white"/>
</g>
<defs>
<filter id="filter0_f_1_1810" x="0.80098" y="0.140823" width="185.392" height="184.492" filterUnits="userSpaceOnUse" color-interpolation-filters="sRGB">
<feFlood flood-opacity="0" result="BackgroundImageFix"/>
<feBlend mode="normal" in="SourceGraphic" in2="BackgroundImageFix" result="shape"/>
<feGaussianBlur stdDeviation="13.4994" result="effect1_foregroundBlur_1_1810"/>
</filter>
<filter id="filter1_d_1_1810" x="60.0618" y="47.9839" width="63.0948" height="24.469" filterUnits="userSpaceOnUse" color-interpolation-filters="sRGB">
<feFlood flood-opacity="0" result="BackgroundImageFix"/>
<feColorMatrix in="SourceAlpha" type="matrix" values="0 0 0 0 0 0 0 0 0 0 0 0 0 0 0 0 0 0 127 0" result="hardAlpha"/>
<feOffset dy="2.69988"/>
<feGaussianBlur stdDeviation="2.2499"/>
<feComposite in2="hardAlpha" operator="out"/>
<feColorMatrix type="matrix" values="0 0 0 0 0 0 0 0 0 0 0 0 0 0 0 0 0 0 0.18 0"/>
<feBlend mode="normal" in2="BackgroundImageFix" result="effect1_dropShadow_1_1810"/>
<feBlend mode="normal" in="SourceGraphic" in2="effect1_dropShadow_1_1810" result="shape"/>
</filter>
<filter id="filter2_d_1_1810" x="32.1121" y="76.0775" width="120.494" height="29.6988" filterUnits="userSpaceOnUse" color-interpolation-filters="sRGB">
<feFlood flood-opacity="0" result="BackgroundImageFix"/>
<feColorMatrix in="SourceAlpha" type="matrix" values="0 0 0 0 0 0 0 0 0 0 0 0 0 0 0 0 0 0 127 0" result="hardAlpha"/>
<feOffset dy="2.69988"/>
<feGaussianBlur stdDeviation="2.2499"/>
<feComposite in2="hardAlpha" operator="out"/>
<feColorMatrix type="matrix" values="0 0 0 0 0 0 0 0 0 0 0 0 0 0 0 0 0 0 0.18 0"/>
<feBlend mode="normal" in2="BackgroundImageFix" result="effect1_dropShadow_1_1810"/>
<feBlend mode="normal" in="SourceGraphic" in2="effect1_dropShadow_1_1810" result="shape"/>
</filter>
</defs>
</svg>
