<svg width="210" height="211" viewBox="0 0 210 211" fill="none" xmlns="http://www.w3.org/2000/svg">
<g opacity="0.5" filter="url(#filter0_f_1_1836)">
<path d="M182.499 105.324L171.743 91.8968L176.598 75.3613L161.537 67.1217L159.709 49.9759L142.66 48.1368L134.467 32.9907L118.017 37.8654L104.674 27.0479L91.322 37.8654L74.8802 32.9907L66.6872 48.1368L49.6385 49.9759L47.8099 67.1217L32.7495 75.3613L37.5966 91.8968L26.8403 105.324L37.5966 118.744L32.7495 135.287L47.8099 143.527L49.6385 160.673L66.6872 162.512L74.8802 177.658L91.322 172.783L104.674 183.601L118.017 172.783L134.467 177.658L142.66 162.512L159.709 160.673L161.529 143.527L176.598 135.287L171.743 118.744L182.499 105.324Z" fill="#3C444F" fill-opacity="0.6"/>
</g>
<path d="M191.382 89.1956L179.332 104.144L184.762 122.573L167.89 131.751L165.842 150.851L146.751 152.89L137.573 169.771L119.144 164.332L104.196 176.382L89.238 164.332L70.8185 169.762L61.64 152.89L42.5405 150.842L40.4919 131.751L23.62 122.573L29.0501 104.144L17 89.1956L29.0501 74.238L23.62 55.8185L40.4919 46.64L42.5405 27.5405L61.64 25.4919L70.8185 8.61996L89.238 14.0501L104.196 2L119.144 14.0501L137.573 8.61996L146.751 25.4919L165.851 27.5405L167.89 46.64L184.771 55.8185L179.332 74.238L191.382 89.1956Z" fill="#3C444F"/>
<path d="M185.236 89.1952L173.302 102.945L179.081 120.22L162.782 128.334L161.503 146.503L143.334 147.782L135.22 164.081L117.945 158.302L104.195 170.236L90.4367 158.302L73.1711 164.081L65.0483 147.782L46.8881 146.503L45.6088 128.334L29.3005 120.22L35.0795 102.945L23.1457 89.1952L35.0795 75.4365L29.3005 58.1709L45.6088 50.057L46.8881 31.8879L65.0572 30.6086L73.1711 14.3003L90.4367 20.0793L104.195 8.14551L117.945 20.0793L135.22 14.3003L143.334 30.6086L161.503 31.8879L162.782 50.057L179.081 58.1709L173.302 75.4365L185.236 89.1952Z" fill="#F47D31"/>
<path d="M35.0795 102.945L29.3452 120.21L45.6446 128.333L46.9239 146.493L65.093 147.781L73.18 164.045L90.4546 158.266L104.204 170.2L117.909 158.302L135.175 164.081L143.289 147.781L161.458 146.493V146.126C64.2431 136.027 51.2537 66.1055 50.869 31.6191L46.8165 31.8965L45.5373 50.0656L29.3452 58.1705L35.1242 75.4361L23.1904 89.1859L35.0795 102.945Z" fill="#E8620C"/>
<path d="M137.394 37.8457H73.3594V41.3793H137.394V37.8457Z" fill="white"/>
<path d="M137.394 137.012H73.3594V140.545H137.394V137.012Z" fill="white"/>
<g filter="url(#filter1_d_1_1836)">
<path d="M46.615 108.094C46.461 108.094 46.335 108.045 46.237 107.947C46.153 107.835 46.125 107.702 46.153 107.548L49.072 93.9397C49.1 93.7857 49.177 93.6597 49.303 93.5617C49.429 93.4497 49.569 93.3937 49.723 93.3937H55.078C55.974 93.3937 56.814 93.5197 57.598 93.7717C58.396 94.0237 59.082 94.3947 59.656 94.8847C60.23 95.3607 60.643 95.9557 60.895 96.6697C61.161 97.3837 61.21 98.2097 61.042 99.1477C60.944 99.7497 60.846 100.282 60.748 100.744C60.65 101.206 60.524 101.731 60.37 102.319C60.034 103.635 59.558 104.72 58.942 105.574C58.326 106.428 57.521 107.065 56.527 107.485C55.547 107.891 54.322 108.094 52.852 108.094H46.615ZM51.319 104.524H53.104C53.566 104.524 53.972 104.447 54.322 104.293C54.686 104.139 54.987 103.901 55.225 103.579C55.477 103.243 55.666 102.816 55.792 102.298C55.904 101.892 55.995 101.528 56.065 101.206C56.135 100.884 56.198 100.562 56.254 100.24C56.324 99.9177 56.394 99.5607 56.464 99.1687C56.59 98.3987 56.485 97.8387 56.149 97.4888C55.827 97.1387 55.316 96.9637 54.616 96.9637H52.936L51.319 104.524ZM61.0118 108.094C60.8718 108.094 60.7528 108.045 60.6548 107.947C60.5708 107.835 60.5428 107.702 60.5708 107.548L63.4898 93.9397C63.5178 93.7857 63.5948 93.6597 63.7208 93.5617C63.8468 93.4497 63.9868 93.3937 64.1408 93.3937H67.6898C67.8438 93.3937 67.9628 93.4497 68.0468 93.5617C68.1308 93.6597 68.1588 93.7857 68.1308 93.9397L65.2328 107.548C65.2048 107.702 65.1278 107.835 65.0018 107.947C64.8758 108.045 64.7358 108.094 64.5818 108.094H61.0118ZM72.9761 108.304C71.5201 108.304 70.3161 108.101 69.3641 107.695C68.4261 107.289 67.7541 106.757 67.3481 106.099C66.9421 105.427 66.8021 104.713 66.9281 103.957C66.9561 103.831 67.0191 103.726 67.1171 103.642C67.2151 103.558 67.3271 103.516 67.4531 103.516H70.7921C71.0021 103.516 71.1561 103.551 71.2541 103.621C71.3521 103.677 71.4501 103.761 71.5481 103.873C71.6321 104.027 71.7441 104.174 71.8841 104.314C72.0381 104.44 72.2341 104.545 72.4721 104.629C72.7241 104.699 73.0181 104.734 73.3541 104.734C73.9981 104.734 74.5161 104.65 74.9081 104.482C75.3141 104.3 75.5521 104.055 75.6221 103.747C75.6781 103.509 75.6221 103.313 75.4541 103.159C75.3001 103.005 75.0061 102.865 74.5721 102.739C74.1521 102.613 73.5781 102.48 72.8501 102.34C71.8001 102.158 70.9251 101.864 70.2251 101.458C69.5391 101.052 69.0561 100.527 68.7761 99.8827C68.4961 99.2247 68.4541 98.4477 68.6501 97.5517C68.9301 96.1937 69.6511 95.1297 70.8131 94.3597C71.9751 93.5757 73.4801 93.1837 75.3281 93.1837C76.2521 93.1837 77.0851 93.3167 77.8271 93.5827C78.5691 93.8487 79.1921 94.1987 79.6961 94.6327C80.2141 95.0527 80.5921 95.5077 80.8301 95.9977C81.0821 96.4877 81.1661 96.9567 81.0821 97.4047C81.0681 97.5307 81.0051 97.6427 80.8931 97.7407C80.7951 97.8247 80.6901 97.8667 80.5781 97.8667H77.0711C76.8891 97.8667 76.7421 97.8387 76.6301 97.7827C76.5321 97.7267 76.4411 97.6357 76.3571 97.5097C76.3291 97.3137 76.1891 97.1387 75.9371 96.9847C75.6991 96.8307 75.3771 96.7537 74.9711 96.7537C74.4951 96.7537 74.1031 96.8377 73.7951 97.0058C73.5011 97.1597 73.3191 97.3907 73.2491 97.6987C73.2071 97.9087 73.2491 98.0907 73.3751 98.2447C73.5011 98.3987 73.7461 98.5387 74.1101 98.6647C74.4741 98.7767 74.9921 98.9027 75.6641 99.0427C76.9661 99.2387 77.9811 99.5397 78.7091 99.9457C79.4511 100.352 79.9411 100.877 80.1791 101.521C80.4311 102.151 80.4661 102.907 80.2841 103.789C79.9621 105.273 79.1851 106.4 77.9531 107.17C76.7351 107.926 75.0761 108.304 72.9761 108.304ZM86.9765 108.304C86.0245 108.304 85.1495 108.192 84.3515 107.968C83.5535 107.73 82.8815 107.38 82.3355 106.918C81.7895 106.442 81.3975 105.847 81.1595 105.133C80.9355 104.419 80.9005 103.579 81.0545 102.613C81.1525 102.039 81.2715 101.423 81.4115 100.765C81.5655 100.107 81.7125 99.4767 81.8525 98.8747C82.1885 97.6147 82.6925 96.5647 83.3645 95.7247C84.0365 94.8707 84.8765 94.2337 85.8845 93.8137C86.9065 93.3937 88.0965 93.1837 89.4545 93.1837C90.3225 93.1837 91.1555 93.2957 91.9535 93.5197C92.7515 93.7297 93.4445 94.0517 94.0325 94.4857C94.6345 94.9197 95.0755 95.4657 95.3555 96.1237C95.6355 96.7677 95.6915 97.5237 95.5235 98.3917C95.4955 98.5177 95.4255 98.6297 95.3135 98.7277C95.2155 98.8117 95.1035 98.8537 94.9775 98.8537H91.4075C91.2115 98.8537 91.0645 98.8117 90.9665 98.7277C90.8825 98.6437 90.8265 98.4967 90.7985 98.2867C90.7845 97.6987 90.6165 97.2997 90.2945 97.0897C89.9865 96.8657 89.5805 96.7537 89.0765 96.7537C88.4605 96.7537 87.9285 96.9217 87.4805 97.2577C87.0465 97.5797 86.7315 98.1537 86.5355 98.9797C86.2415 100.128 85.9895 101.304 85.7795 102.508C85.6255 103.334 85.6885 103.915 85.9685 104.251C86.2625 104.573 86.7175 104.734 87.3335 104.734C87.8375 104.734 88.2925 104.622 88.6985 104.398C89.1185 104.174 89.4685 103.775 89.7485 103.201C89.8605 102.977 89.9725 102.83 90.0845 102.76C90.2105 102.676 90.3785 102.634 90.5885 102.634H94.1585C94.2845 102.634 94.3825 102.676 94.4525 102.76C94.5365 102.844 94.5645 102.949 94.5365 103.075C94.3125 103.943 93.9765 104.706 93.5285 105.364C93.0945 106.008 92.5485 106.554 91.8905 107.002C91.2325 107.436 90.4905 107.765 89.6645 107.989C88.8385 108.199 87.9425 108.304 86.9765 108.304ZM101.148 108.304C100.238 108.304 99.3907 108.185 98.6067 107.947C97.8227 107.709 97.1507 107.352 96.5907 106.876C96.0447 106.4 95.6457 105.812 95.3937 105.112C95.1417 104.398 95.0997 103.565 95.2677 102.613C95.3657 102.025 95.4777 101.423 95.6037 100.807C95.7437 100.177 95.8837 99.5537 96.0237 98.9377C96.4857 97.0897 97.3257 95.6687 98.5437 94.6747C99.7757 93.6807 101.47 93.1837 103.626 93.1837C104.536 93.1837 105.383 93.3097 106.167 93.5617C106.951 93.8137 107.616 94.1847 108.162 94.6747C108.722 95.1507 109.128 95.7527 109.38 96.4807C109.632 97.1947 109.674 98.0137 109.506 98.9377C109.408 99.5537 109.289 100.177 109.149 100.807C109.023 101.423 108.883 102.025 108.729 102.613C108.253 104.503 107.406 105.924 106.188 106.876C104.97 107.828 103.29 108.304 101.148 108.304ZM101.526 104.734C102.128 104.734 102.653 104.559 103.101 104.209C103.563 103.845 103.885 103.271 104.067 102.487C104.221 101.885 104.361 101.304 104.487 100.744C104.613 100.17 104.725 99.5887 104.823 99.0007C104.963 98.2167 104.886 97.6497 104.592 97.2998C104.312 96.9357 103.871 96.7537 103.269 96.7537C102.667 96.7537 102.142 96.9357 101.694 97.2998C101.246 97.6497 100.917 98.2167 100.707 99.0007C100.567 99.5887 100.434 100.17 100.308 100.744C100.196 101.304 100.084 101.885 99.9717 102.487C99.8317 103.271 99.9017 103.845 100.182 104.209C100.462 104.559 100.91 104.734 101.526 104.734ZM115.629 108.304C114.733 108.304 113.893 108.192 113.109 107.968C112.325 107.73 111.66 107.38 111.114 106.918C110.568 106.442 110.183 105.84 109.959 105.112C109.749 104.384 109.749 103.523 109.959 102.529L111.786 93.9397C111.814 93.7857 111.891 93.6597 112.017 93.5617C112.143 93.4497 112.283 93.3937 112.437 93.3937H115.839C115.993 93.3937 116.112 93.4497 116.196 93.5617C116.294 93.6597 116.329 93.7857 116.301 93.9397L114.474 102.466C114.32 103.18 114.362 103.719 114.6 104.083C114.852 104.447 115.321 104.629 116.007 104.629C116.679 104.629 117.232 104.447 117.666 104.083C118.1 103.719 118.387 103.18 118.527 102.466L120.354 93.9397C120.382 93.7857 120.459 93.6597 120.585 93.5617C120.711 93.4497 120.851 93.3937 121.005 93.3937H124.428C124.582 93.3937 124.701 93.4497 124.785 93.5617C124.869 93.6597 124.897 93.7857 124.869 93.9397L123.042 102.529C122.608 104.517 121.796 105.98 120.606 106.918C119.43 107.842 117.771 108.304 115.629 108.304ZM124.078 108.094C123.924 108.094 123.798 108.045 123.7 107.947C123.616 107.835 123.588 107.702 123.616 107.548L126.535 93.9397C126.563 93.7857 126.64 93.6597 126.766 93.5617C126.892 93.4497 127.025 93.3937 127.165 93.3937H129.958C130.21 93.3937 130.378 93.4497 130.462 93.5617C130.56 93.6737 130.616 93.7647 130.63 93.8347L133.528 100.807L134.977 93.9397C135.005 93.7857 135.082 93.6597 135.208 93.5617C135.334 93.4497 135.474 93.3937 135.628 93.3937H138.799C138.953 93.3937 139.072 93.4497 139.156 93.5617C139.24 93.6597 139.268 93.7857 139.24 93.9397L136.342 107.548C136.314 107.702 136.237 107.835 136.111 107.947C135.985 108.045 135.845 108.094 135.691 108.094H132.919C132.653 108.094 132.471 108.038 132.373 107.926C132.289 107.8 132.233 107.709 132.205 107.653L129.265 101.059L127.879 107.548C127.851 107.702 127.774 107.835 127.648 107.947C127.522 108.045 127.382 108.094 127.228 108.094H124.078ZM141.75 108.094C141.61 108.094 141.491 108.045 141.393 107.947C141.309 107.835 141.281 107.702 141.309 107.548L143.514 97.2998H139.902C139.748 97.2998 139.622 97.2507 139.524 97.1527C139.44 97.0407 139.412 96.9077 139.44 96.7537L140.049 93.9397C140.077 93.7857 140.154 93.6597 140.28 93.5617C140.42 93.4497 140.56 93.3937 140.7 93.3937H152.502C152.656 93.3937 152.775 93.4497 152.859 93.5617C152.957 93.6597 152.992 93.7857 152.964 93.9397L152.355 96.7537C152.327 96.9077 152.25 97.0407 152.124 97.1527C151.998 97.2507 151.858 97.2998 151.704 97.2998H148.092L145.887 107.548C145.859 107.702 145.782 107.835 145.656 107.947C145.53 108.045 145.39 108.094 145.236 108.094H141.75ZM156.899 108.304C155.443 108.304 154.239 108.101 153.287 107.695C152.349 107.289 151.677 106.757 151.271 106.099C150.865 105.427 150.725 104.713 150.851 103.957C150.879 103.831 150.942 103.726 151.04 103.642C151.138 103.558 151.25 103.516 151.376 103.516H154.715C154.925 103.516 155.079 103.551 155.177 103.621C155.275 103.677 155.373 103.761 155.471 103.873C155.555 104.027 155.667 104.174 155.807 104.314C155.961 104.44 156.157 104.545 156.395 104.629C156.647 104.699 156.941 104.734 157.277 104.734C157.921 104.734 158.439 104.65 158.831 104.482C159.237 104.3 159.475 104.055 159.545 103.747C159.601 103.509 159.545 103.313 159.377 103.159C159.223 103.005 158.929 102.865 158.495 102.739C158.075 102.613 157.501 102.48 156.773 102.34C155.723 102.158 154.848 101.864 154.148 101.458C153.462 101.052 152.979 100.527 152.699 99.8827C152.419 99.2247 152.377 98.4477 152.573 97.5517C152.853 96.1937 153.574 95.1297 154.736 94.3597C155.898 93.5757 157.403 93.1837 159.251 93.1837C160.175 93.1837 161.008 93.3167 161.75 93.5827C162.492 93.8487 163.115 94.1987 163.619 94.6327C164.137 95.0527 164.515 95.5077 164.753 95.9977C165.005 96.4877 165.089 96.9567 165.005 97.4047C164.991 97.5307 164.928 97.6427 164.816 97.7407C164.718 97.8247 164.613 97.8667 164.501 97.8667H160.994C160.812 97.8667 160.665 97.8387 160.553 97.7827C160.455 97.7267 160.364 97.6357 160.28 97.5097C160.252 97.3137 160.112 97.1387 159.86 96.9847C159.622 96.8307 159.3 96.7537 158.894 96.7537C158.418 96.7537 158.026 96.8377 157.718 97.0058C157.424 97.1597 157.242 97.3907 157.172 97.6987C157.13 97.9087 157.172 98.0907 157.298 98.2447C157.424 98.3987 157.669 98.5387 158.033 98.6647C158.397 98.7767 158.915 98.9027 159.587 99.0427C160.889 99.2387 161.904 99.5397 162.632 99.9457C163.374 100.352 163.864 100.877 164.102 101.521C164.354 102.151 164.389 102.907 164.207 103.789C163.885 105.273 163.108 106.4 161.876 107.17C160.658 107.926 158.999 108.304 156.899 108.304Z" fill="white"/>
</g>
<g filter="url(#filter2_d_1_1836)">
<path d="M55.1082 83.9968C54.1635 83.9968 53.3001 83.8787 52.5178 83.6425C51.7502 83.3916 51.1155 83.0152 50.6137 82.5134C50.1118 82.0115 49.7723 81.3768 49.5952 80.6093C49.4181 79.8417 49.4402 78.9266 49.6616 77.8638L51.5878 68.8305C51.6174 68.6681 51.6912 68.5353 51.8093 68.432C51.9421 68.3286 52.0823 68.277 52.2299 68.277H54.6654C54.8278 68.277 54.9458 68.3286 55.0196 68.432C55.1082 68.5353 55.1377 68.6681 55.1082 68.8305L53.182 77.8417C52.9606 78.9192 53.0122 79.7237 53.337 80.255C53.6764 80.7864 54.348 81.0521 55.3517 81.0521C56.3407 81.0521 57.1451 80.7864 57.7651 80.255C58.3998 79.7237 58.8278 78.9192 59.0492 77.8417L60.9755 68.8305C61.005 68.6681 61.0862 68.5353 61.219 68.432C61.3519 68.3286 61.4921 68.277 61.6397 68.277H64.0751C64.2228 68.277 64.3335 68.3286 64.4073 68.432C64.4958 68.5353 64.5253 68.6681 64.4958 68.8305L62.5917 77.8638C62.1342 79.9746 61.3076 81.5244 60.112 82.5134C58.9164 83.5023 57.2485 83.9968 55.1082 83.9968ZM64.136 83.7754C63.9737 83.7754 63.8482 83.7237 63.7596 83.6204C63.6858 83.5171 63.6637 83.3842 63.6932 83.2219L66.7486 68.8305C66.7781 68.6681 66.8519 68.5353 66.97 68.432C67.1029 68.3286 67.2431 68.277 67.3907 68.277H69.4276C69.649 68.277 69.7966 68.3286 69.8704 68.432C69.959 68.5205 70.0107 68.6017 70.0254 68.6755L73.9886 77.9524L75.937 68.8305C75.9665 68.6681 76.0403 68.5353 76.1584 68.432C76.2912 68.3286 76.4314 68.277 76.5791 68.277H78.8374C78.9998 68.277 79.1178 68.3286 79.1916 68.432C79.2802 68.5353 79.3097 68.6681 79.2802 68.8305L76.2248 83.2219C76.1953 83.3695 76.1141 83.5023 75.9813 83.6204C75.8632 83.7237 75.7303 83.7754 75.5827 83.7754H73.5679C73.3465 83.7754 73.1915 83.7237 73.103 83.6204C73.0144 83.5171 72.9554 83.4359 72.9259 83.3769L68.9627 74.3656L67.0586 83.2219C67.0291 83.3842 66.9479 83.5171 66.815 83.6204C66.697 83.7237 66.5567 83.7754 66.3944 83.7754H64.136ZM79.0559 83.7754C78.8935 83.7754 78.768 83.7237 78.6795 83.6204C78.6057 83.5171 78.5835 83.3842 78.613 83.2219L81.6906 68.8305C81.7201 68.6681 81.7939 68.5353 81.912 68.432C82.0301 68.3286 82.1703 68.277 82.3327 68.277H84.8124C84.9748 68.277 85.0929 68.3286 85.1667 68.432C85.2552 68.5353 85.2847 68.6681 85.2552 68.8305L82.7091 80.7864H89.5726C89.735 80.7864 89.8531 80.8381 89.9269 80.9414C90.0155 81.0447 90.0376 81.1776 89.9933 81.3399L89.5948 83.2219C89.5653 83.3842 89.4915 83.5171 89.3734 83.6204C89.2553 83.7237 89.1151 83.7754 88.9527 83.7754H79.0559ZM91.0562 83.7754C90.9086 83.7754 90.7906 83.7237 90.702 83.6204C90.6134 83.5171 90.5839 83.3842 90.6134 83.2219L93.7131 68.8305C93.7426 68.6681 93.8164 68.5353 93.9345 68.432C94.0526 68.3286 94.1928 68.277 94.3552 68.277H96.8792C97.0416 68.277 97.1597 68.3286 97.2335 68.432C97.322 68.5353 97.3516 68.6681 97.322 68.8305L94.2445 83.2219C94.215 83.3842 94.1412 83.5171 94.0231 83.6204C93.905 83.7237 93.7648 83.7754 93.6024 83.7754H91.0562ZM97.0685 83.7754C96.9208 83.7754 96.8028 83.7237 96.7142 83.6204C96.6256 83.5171 96.5961 83.3842 96.6256 83.2219L99.681 68.8305C99.7106 68.6681 99.7917 68.5353 99.9246 68.432C100.057 68.3286 100.198 68.277 100.345 68.277H102.449C102.67 68.277 102.825 68.336 102.914 68.4541C103.002 68.5722 103.054 68.6607 103.069 68.7198L105.57 76.2033L111.261 68.7198C111.305 68.6607 111.393 68.5722 111.526 68.4541C111.659 68.336 111.836 68.277 112.058 68.277H114.139C114.301 68.277 114.419 68.3286 114.493 68.432C114.582 68.5353 114.611 68.6681 114.582 68.8305L111.504 83.2219C111.475 83.3842 111.401 83.5171 111.283 83.6204C111.165 83.7237 111.024 83.7754 110.862 83.7754H108.582C108.434 83.7754 108.316 83.7237 108.227 83.6204C108.139 83.5171 108.109 83.3842 108.139 83.2219L109.999 74.4542L106.19 79.5465C106.087 79.6794 105.962 79.7975 105.814 79.9008C105.681 80.0041 105.519 80.0558 105.327 80.0558H104.308C104.102 80.0558 103.954 80.0041 103.866 79.9008C103.777 79.7975 103.711 79.6794 103.666 79.5465L101.917 74.1885L99.991 83.2219C99.9615 83.3842 99.8803 83.5171 99.7475 83.6204C99.6294 83.7237 99.4965 83.7754 99.3489 83.7754H97.0685ZM114.323 83.7754C114.175 83.7754 114.057 83.7237 113.969 83.6204C113.88 83.5171 113.851 83.3842 113.88 83.2219L116.98 68.8305C117.009 68.6681 117.083 68.5353 117.201 68.432C117.319 68.3286 117.459 68.277 117.622 68.277H120.146C120.308 68.277 120.426 68.3286 120.5 68.432C120.589 68.5353 120.618 68.6681 120.589 68.8305L117.511 83.2219C117.482 83.3842 117.408 83.5171 117.29 83.6204C117.172 83.7237 117.031 83.7754 116.869 83.7754H114.323ZM123.7 83.7754C123.553 83.7754 123.435 83.7237 123.346 83.6204C123.258 83.5171 123.228 83.3842 123.258 83.2219L125.782 71.3767H121.774C121.612 71.3767 121.486 71.325 121.398 71.2217C121.324 71.1183 121.302 70.9855 121.331 70.8231L121.752 68.8305C121.782 68.6681 121.855 68.5353 121.974 68.432C122.106 68.3286 122.254 68.277 122.416 68.277H134.018C134.18 68.277 134.298 68.3286 134.372 68.432C134.461 68.5353 134.49 68.6681 134.461 68.8305L134.04 70.8231C134.011 70.9855 133.929 71.1183 133.797 71.2217C133.679 71.325 133.538 71.3767 133.376 71.3767H129.368L126.822 83.2219C126.793 83.3842 126.719 83.5171 126.601 83.6204C126.483 83.7237 126.343 83.7754 126.18 83.7754H123.7ZM133.05 83.7754C132.887 83.7754 132.762 83.7237 132.673 83.6204C132.599 83.5171 132.577 83.3842 132.607 83.2219L135.662 68.8305C135.692 68.6681 135.765 68.5353 135.884 68.432C136.016 68.3286 136.164 68.277 136.326 68.277H146.356C146.518 68.277 146.636 68.3286 146.71 68.432C146.799 68.5353 146.828 68.6681 146.799 68.8305L146.445 70.6017C146.4 70.7641 146.312 70.8969 146.179 71.0003C146.061 71.1036 145.921 71.1552 145.758 71.1552H138.607L137.854 74.6092H144.54C144.703 74.6092 144.821 74.6608 144.895 74.7642C144.983 74.8675 145.013 75.0003 144.983 75.1627L144.629 76.8011C144.6 76.9487 144.518 77.0815 144.386 77.1996C144.267 77.303 144.127 77.3546 143.965 77.3546H137.278L136.526 80.8971H143.854C144.017 80.8971 144.135 80.9488 144.208 81.0521C144.297 81.1554 144.326 81.2883 144.297 81.4506L143.921 83.2219C143.891 83.3842 143.81 83.5171 143.677 83.6204C143.559 83.7237 143.419 83.7754 143.256 83.7754H133.05ZM146.11 83.7754C145.948 83.7754 145.822 83.7237 145.733 83.6204C145.66 83.5171 145.638 83.3842 145.667 83.2219L148.722 68.8305C148.752 68.6681 148.826 68.5353 148.944 68.432C149.077 68.3286 149.224 68.277 149.387 68.277H154.612C155.586 68.277 156.472 68.4098 157.269 68.6755C158.066 68.9412 158.73 69.3323 159.261 69.849C159.808 70.3508 160.191 70.9781 160.413 71.7309C160.634 72.4837 160.656 73.3472 160.479 74.3214C160.361 74.9708 160.25 75.5391 160.147 76.0262C160.044 76.5133 159.911 77.0742 159.749 77.7089C159.409 79.0816 158.929 80.2181 158.309 81.1185C157.704 82.0189 156.9 82.6905 155.896 83.1333C154.907 83.5614 153.652 83.7754 152.132 83.7754H146.11ZM149.697 80.8971H152.287C153.025 80.8971 153.645 80.7938 154.147 80.5871C154.664 80.3657 155.084 80.0189 155.409 79.5465C155.748 79.0594 156.007 78.4321 156.184 77.6646C156.302 77.2365 156.398 76.8528 156.472 76.5133C156.545 76.1738 156.612 75.8343 156.671 75.4948C156.745 75.1553 156.819 74.7789 156.892 74.3656C157.099 73.2586 156.988 72.4468 156.56 71.9302C156.132 71.4136 155.365 71.1552 154.258 71.1552H151.778L149.697 80.8971Z" fill="white"/>
</g>
<defs>
<filter id="filter0_f_1_1836" x="0.00266838" y="0.210188" width="209.334" height="210.228" filterUnits="userSpaceOnUse" color-interpolation-filters="sRGB">
<feFlood flood-opacity="0" result="BackgroundImageFix"/>
<feBlend mode="normal" in="SourceGraphic" in2="BackgroundImageFix" result="shape"/>
<feGaussianBlur stdDeviation="13.4188" result="effect1_foregroundBlur_1_1836"/>
</filter>
<filter id="filter1_d_1_1836" x="41.638" y="91.3945" width="127.966" height="24.0659" filterUnits="userSpaceOnUse" color-interpolation-filters="sRGB">
<feFlood flood-opacity="0" result="BackgroundImageFix"/>
<feColorMatrix in="SourceAlpha" type="matrix" values="0 0 0 0 0 0 0 0 0 0 0 0 0 0 0 0 0 0 127 0" result="hardAlpha"/>
<feOffset dy="2.68377"/>
<feGaussianBlur stdDeviation="2.23647"/>
<feComposite in2="hardAlpha" operator="out"/>
<feColorMatrix type="matrix" values="0 0 0 0 0 0 0 0 0 0 0 0 0 0 0 0 0 0 0.18 0"/>
<feBlend mode="normal" in2="BackgroundImageFix" result="effect1_dropShadow_1_1836"/>
<feBlend mode="normal" in="SourceGraphic" in2="effect1_dropShadow_1_1836" result="shape"/>
</filter>
<filter id="filter2_d_1_1836" x="46.9494" y="67.3249" width="116.176" height="20.48" filterUnits="userSpaceOnUse" color-interpolation-filters="sRGB">
<feFlood flood-opacity="0" result="BackgroundImageFix"/>
<feColorMatrix in="SourceAlpha" type="matrix" values="0 0 0 0 0 0 0 0 0 0 0 0 0 0 0 0 0 0 127 0" result="hardAlpha"/>
<feOffset dy="1.42806"/>
<feGaussianBlur stdDeviation="1.19005"/>
<feComposite in2="hardAlpha" operator="out"/>
<feColorMatrix type="matrix" values="0 0 0 0 0 0 0 0 0 0 0 0 0 0 0 0 0 0 0.18 0"/>
<feBlend mode="normal" in2="BackgroundImageFix" result="effect1_dropShadow_1_1836"/>
<feBlend mode="normal" in="SourceGraphic" in2="effect1_dropShadow_1_1836" result="shape"/>
</filter>
</defs>
</svg>
