<svg width="165" height="205" viewBox="0 0 165 205" fill="none" xmlns="http://www.w3.org/2000/svg">
<g opacity="0.5" filter="url(#filter0_f_1_1845)">
<path d="M33.1518 138.368C33.9814 150.859 39.5281 162.567 48.6681 171.121C57.8081 179.675 69.8579 184.435 82.3763 184.436C94.8953 184.435 106.946 179.675 116.087 171.122C125.228 162.568 130.776 150.859 131.607 138.368H144.998L132.186 113.3L144.998 89.1568H131.607C130.776 76.6654 125.228 64.9569 116.087 56.4032C106.946 47.8495 94.8953 43.09 82.3763 43.089C69.8579 43.0901 57.8081 47.8498 48.6681 56.4037C39.5281 64.9576 33.9814 76.666 33.1518 89.1568H19.7607L32.5736 113.3L19.7607 138.368H33.1518Z" fill="#3C444F" fill-opacity="0.6"/>
</g>
<path d="M142.991 60.6927C142.991 27.6374 116.196 0.84082 83.1432 0.84082C50.0902 0.84082 23.2954 27.6374 23.2954 60.6927V112.412C23.2954 145.467 50.0902 172.264 83.1432 172.264C116.196 172.264 142.991 145.467 142.991 112.412V60.6927Z" fill="#3C444F"/>
<path d="M138.955 62.3455C138.955 31.409 113.876 6.33008 82.9397 6.33008C52.0033 6.33008 26.9243 31.409 26.9243 62.3455V110.761C26.9243 141.697 52.0033 166.776 82.9397 166.776C113.876 166.776 138.955 141.697 138.955 110.761V62.3455Z" fill="#BA261A"/>
<path d="M82.9151 166.775C91.2053 166.782 99.3933 164.946 106.886 161.398C114.379 157.85 120.989 152.68 126.236 146.263C54.8429 142.725 38.675 73.1445 35.3141 32.8457C29.815 41.701 26.9082 51.9206 26.9239 62.3445V110.759C26.9239 125.612 32.8222 139.856 43.3219 150.36C53.8216 160.864 68.0631 166.768 82.9151 166.775Z" fill="#981F15"/>
<path d="M113.463 95.3543H54.8L60.8018 84.2867L54.8 73.6271H113.463L107.462 84.2867L113.463 95.3543Z" fill="white"/>
<path d="M82.9399 16.0344L84.6163 21.1927H90.0486L85.656 24.3843L87.3324 29.5426L82.9399 26.3509L78.5553 29.5426L80.2318 24.3843L75.8392 21.1927H81.2634L82.9399 16.0344Z" fill="#FDFDFD"/>
<path d="M82.9399 143.563L84.6163 148.729H90.0486L85.656 151.913L87.3324 157.079L82.9399 153.887L78.5553 157.079L80.2318 151.913L75.8392 148.729H81.2634L82.9399 143.563Z" fill="#FDFDFD"/>
<g filter="url(#filter1_d_1_1845)">
<path d="M49.3165 64.3611C48.2809 64.3611 47.3169 64.2256 46.4246 63.9548C45.5324 63.6839 44.7676 63.2776 44.1303 62.7359C43.5089 62.1941 43.0548 61.5249 42.768 60.7283C42.4812 59.9157 42.4334 58.9677 42.6246 57.8842C42.7361 57.215 42.8636 56.5299 43.007 55.8288C43.1663 55.1118 43.3256 54.4028 43.485 53.7017C44.0108 51.5985 44.9667 49.9813 46.3529 48.85C47.7551 47.7188 49.683 47.1531 52.1367 47.1531C53.1724 47.1531 54.1363 47.2965 55.0286 47.5833C55.9209 47.8701 56.6777 48.2924 57.2991 48.85C57.9364 49.3918 58.3985 50.0769 58.6853 50.9054C58.9721 51.718 59.0199 52.6501 58.8287 53.7017C58.7172 54.4028 58.5817 55.1118 58.4224 55.8288C58.279 56.5299 58.1197 57.215 57.9444 57.8842C57.4027 60.0352 56.4387 61.6524 55.0525 62.7359C53.6663 63.8193 51.7543 64.3611 49.3165 64.3611ZM49.7467 60.2981C50.4319 60.2981 51.0294 60.0989 51.5392 59.7006C52.065 59.2863 52.4315 58.6331 52.6386 57.7408C52.8139 57.0557 52.9732 56.3944 53.1166 55.7571C53.26 55.1038 53.3875 54.4426 53.499 53.7734C53.6583 52.8811 53.5707 52.2358 53.2361 51.8375C52.9175 51.4233 52.4156 51.2161 51.7304 51.2161C51.0453 51.2161 50.4478 51.4233 49.9379 51.8375C49.4281 52.2358 49.0536 52.8811 48.8146 53.7734C48.6553 54.4426 48.5039 55.1038 48.3605 55.7571C48.2331 56.3944 48.1056 57.0557 47.9781 57.7408C47.8188 58.6331 47.8985 59.2863 48.2171 59.7006C48.5358 60.0989 49.0457 60.2981 49.7467 60.2981ZM58.7943 64.1221C58.6191 64.1221 58.4757 64.0663 58.3641 63.9548C58.2685 63.8273 58.2367 63.6759 58.2685 63.5007L61.5906 48.0135C61.6225 47.8383 61.7101 47.6949 61.8535 47.5833C61.9969 47.4559 62.1483 47.3921 62.3076 47.3921H65.4863C65.7731 47.3921 65.9643 47.4559 66.0599 47.5833C66.1714 47.7108 66.2352 47.8144 66.2511 47.894L69.5493 55.8288L71.1984 48.0135C71.2303 47.8383 71.3179 47.6949 71.4613 47.5833C71.6047 47.4559 71.764 47.3921 71.9393 47.3921H75.5482C75.7234 47.3921 75.8589 47.4559 75.9545 47.5833C76.0501 47.6949 76.0819 47.8383 76.0501 48.0135L72.7519 63.5007C72.72 63.6759 72.6324 63.8273 72.489 63.9548C72.3456 64.0663 72.1863 64.1221 72.011 64.1221H68.8562C68.5535 64.1221 68.3463 64.0583 68.2348 63.9309C68.1392 63.7875 68.0755 63.6839 68.0436 63.6202L64.6976 56.1156L63.1202 63.5007C63.0884 63.6759 63.0007 63.8273 62.8573 63.9548C62.7139 64.0663 62.5546 64.1221 62.3793 64.1221H58.7943ZM75.2498 64.1221C75.0745 64.1221 74.9311 64.0663 74.8196 63.9548C74.724 63.8273 74.6921 63.6759 74.724 63.5007L78.0461 48.0135C78.078 47.8383 78.1656 47.6949 78.309 47.5833C78.4524 47.4559 78.6117 47.3921 78.787 47.3921H82.7544C82.9137 47.3921 83.0412 47.4559 83.1368 47.5833C83.2483 47.6949 83.2881 47.8383 83.2563 48.0135L80.7229 59.8679H87.6539C87.8291 59.8679 87.9646 59.9316 88.0602 60.0591C88.1558 60.1706 88.1797 60.314 88.1319 60.4893L87.5105 63.5007C87.4786 63.6759 87.383 63.8273 87.2237 63.9548C87.0803 64.0663 86.9209 64.1221 86.7457 64.1221H75.2498ZM88.7872 64.1221C88.6279 64.1221 88.4925 64.0663 88.3809 63.9548C88.2853 63.8273 88.2535 63.6759 88.2853 63.5007L91.6074 48.0135C91.6393 47.8383 91.7269 47.6949 91.8703 47.5833C92.0137 47.4559 92.1731 47.3921 92.3483 47.3921H96.3874C96.5627 47.3921 96.6981 47.4559 96.7937 47.5833C96.8893 47.6949 96.9212 47.8383 96.8893 48.0135L93.5911 63.5007C93.5592 63.6759 93.4716 63.8273 93.3282 63.9548C93.1848 64.0663 93.0255 64.1221 92.8502 64.1221H88.7872ZM96.0941 64.1221C95.9188 64.1221 95.7754 64.0663 95.6639 63.9548C95.5683 63.8273 95.5364 63.6759 95.5683 63.5007L98.8904 48.0135C98.9222 47.8383 99.0099 47.6949 99.1533 47.5833C99.2967 47.4559 99.448 47.3921 99.6074 47.3921H102.786C103.073 47.3921 103.264 47.4559 103.36 47.5833C103.471 47.7108 103.535 47.8144 103.551 47.894L106.849 55.8288L108.498 48.0135C108.53 47.8383 108.618 47.6949 108.761 47.5833C108.904 47.4559 109.064 47.3921 109.239 47.3921H112.848C113.023 47.3921 113.159 47.4559 113.254 47.5833C113.35 47.6949 113.382 47.8383 113.35 48.0135L110.052 63.5007C110.02 63.6759 109.932 63.8273 109.789 63.9548C109.645 64.0663 109.486 64.1221 109.311 64.1221H106.156C105.853 64.1221 105.646 64.0583 105.535 63.9309C105.439 63.7875 105.375 63.6839 105.343 63.6202L101.997 56.1156L100.42 63.5007C100.388 63.6759 100.3 63.8273 100.157 63.9548C100.014 64.0663 99.8543 64.1221 99.6791 64.1221H96.0941ZM112.55 64.1221C112.374 64.1221 112.231 64.0663 112.119 63.9548C112.024 63.8273 111.992 63.6759 112.024 63.5007L115.346 48.0135C115.378 47.8383 115.465 47.6949 115.609 47.5833C115.752 47.4559 115.911 47.3921 116.087 47.3921H127.798C127.973 47.3921 128.108 47.4559 128.204 47.5833C128.3 47.6949 128.331 47.8383 128.3 48.0135L127.702 50.8337C127.654 50.9931 127.559 51.1365 127.415 51.2639C127.272 51.3914 127.113 51.4551 126.937 51.4551H119.552L119.026 53.8212H125.886C126.061 53.8212 126.196 53.8849 126.292 54.0124C126.404 54.1239 126.443 54.2673 126.411 54.4426L125.838 57.0238C125.806 57.1991 125.71 57.3504 125.551 57.4779C125.408 57.5894 125.248 57.6452 125.073 57.6452H118.214L117.712 60.0591H125.288C125.463 60.0591 125.599 60.1228 125.694 60.2503C125.79 60.3778 125.822 60.5291 125.79 60.7044L125.193 63.5007C125.161 63.6759 125.073 63.8273 124.93 63.9548C124.786 64.0663 124.627 64.1221 124.452 64.1221H112.55Z" fill="white"/>
</g>
<g filter="url(#filter2_d_1_1845)">
<path d="M42.6963 119.527C42.5369 119.527 42.4095 119.472 42.3139 119.36C42.2183 119.233 42.1864 119.081 42.2183 118.906L45.5164 103.419C45.5483 103.244 45.6359 103.1 45.7793 102.989C45.9387 102.861 46.098 102.797 46.2573 102.797H53.0688C55.2357 102.797 56.8291 103.291 57.8488 104.279C58.8845 105.267 59.2111 106.645 58.8287 108.414C58.5897 109.529 58.1276 110.477 57.4425 111.258C56.7733 112.039 55.9846 112.652 55.0764 113.098L56.9645 118.739C56.9804 118.786 56.9884 118.834 56.9884 118.882C57.0043 118.914 57.0043 118.954 56.9884 119.002C56.9565 119.145 56.8769 119.272 56.7494 119.384C56.6379 119.48 56.5104 119.527 56.367 119.527H52.3279C52.0252 119.527 51.8101 119.456 51.6826 119.312C51.5711 119.153 51.4994 119.01 51.4675 118.882L50.1291 113.959H48.4083L47.3567 118.906C47.3249 119.081 47.2293 119.233 47.0699 119.36C46.9265 119.472 46.7672 119.527 46.5919 119.527H42.6963ZM49.2448 110.015H51.5153C52.073 110.015 52.5191 109.864 52.8537 109.561C53.2043 109.242 53.4273 108.852 53.5229 108.39C53.6185 107.912 53.5627 107.506 53.3556 107.171C53.1644 106.836 52.782 106.669 52.2084 106.669H49.9379L49.2448 110.015ZM58.3275 119.527C58.1523 119.527 58.0089 119.472 57.8973 119.36C57.8017 119.233 57.7699 119.081 57.8017 118.906L61.1238 103.419C61.1557 103.244 61.2433 103.1 61.3867 102.989C61.5301 102.861 61.6895 102.797 61.8647 102.797H73.5757C73.751 102.797 73.8864 102.861 73.982 102.989C74.0776 103.1 74.1095 103.244 74.0776 103.419L73.4801 106.239C73.4323 106.398 73.3367 106.542 73.1933 106.669C73.0499 106.797 72.8906 106.86 72.7153 106.86H65.3302L64.8044 109.226H71.6637C71.839 109.226 71.9744 109.29 72.07 109.418C72.1815 109.529 72.2214 109.673 72.1895 109.848L71.6159 112.429C71.584 112.604 71.4884 112.756 71.3291 112.883C71.1857 112.995 71.0264 113.05 70.8511 113.05H63.9918L63.4899 115.464H71.0662C71.2415 115.464 71.3769 115.528 71.4725 115.656C71.5681 115.783 71.6 115.934 71.5681 116.11L70.9706 118.906C70.9387 119.081 70.8511 119.233 70.7077 119.36C70.5643 119.472 70.405 119.527 70.2297 119.527H58.3275ZM76.6192 119.527C76.4599 119.527 76.3244 119.472 76.2129 119.36C76.1173 119.233 76.0854 119.081 76.1173 118.906L78.6268 107.243H74.516C74.3407 107.243 74.1973 107.187 74.0858 107.075C73.9902 106.948 73.9583 106.797 73.9902 106.621L74.6833 103.419C74.7152 103.244 74.8028 103.1 74.9462 102.989C75.1055 102.861 75.2649 102.797 75.4242 102.797H88.8559C89.0312 102.797 89.1666 102.861 89.2622 102.989C89.3738 103.1 89.4136 103.244 89.3817 103.419L88.6886 106.621C88.6568 106.797 88.5691 106.948 88.4257 107.075C88.2823 107.187 88.123 107.243 87.9478 107.243H83.837L81.3275 118.906C81.2956 119.081 81.208 119.233 81.0646 119.36C80.9212 119.472 80.7618 119.527 80.5866 119.527H76.6192ZM84.2952 119.527C84.1199 119.527 83.9924 119.456 83.9128 119.312C83.8331 119.153 83.8411 118.994 83.9367 118.834L92.6362 103.538C92.7318 103.363 92.8752 103.196 93.0664 103.036C93.2576 102.877 93.5046 102.797 93.8073 102.797H98.3005C98.6033 102.797 98.8183 102.877 98.9458 103.036C99.0733 103.196 99.145 103.363 99.1609 103.538L101.384 118.834C101.415 119.041 101.36 119.209 101.216 119.336C101.089 119.464 100.937 119.527 100.762 119.527H97.1772C96.9064 119.527 96.7152 119.464 96.6036 119.336C96.4921 119.209 96.4284 119.081 96.4124 118.954L96.0778 116.97H90.3418L89.1469 118.978C89.0831 119.105 88.9716 119.233 88.8123 119.36C88.6689 119.472 88.4617 119.527 88.1909 119.527H84.2952ZM92.2777 112.931H95.8388L95.2174 107.553L92.2777 112.931ZM102.512 119.527C102.353 119.527 102.217 119.472 102.106 119.36C102.01 119.233 101.978 119.081 102.01 118.906L105.332 103.419C105.364 103.244 105.452 103.1 105.595 102.989C105.738 102.861 105.898 102.797 106.073 102.797H110.112C110.287 102.797 110.423 102.861 110.518 102.989C110.614 103.1 110.646 103.244 110.614 103.419L107.316 118.906C107.284 119.081 107.196 119.233 107.053 119.36C106.91 119.472 106.75 119.527 106.575 119.527H102.512ZM109.819 119.527C109.644 119.527 109.5 119.472 109.389 119.36C109.293 119.233 109.261 119.081 109.293 118.906L112.615 103.419C112.647 103.244 112.735 103.1 112.878 102.989C113.021 102.861 113.181 102.797 113.356 102.797H117.323C117.483 102.797 117.61 102.861 117.706 102.989C117.817 103.1 117.857 103.244 117.825 103.419L115.292 115.273H122.223C122.398 115.273 122.534 115.337 122.629 115.464C122.725 115.576 122.749 115.719 122.701 115.895L122.079 118.906C122.048 119.081 121.952 119.233 121.793 119.36C121.649 119.472 121.49 119.527 121.315 119.527H109.819Z" fill="white"/>
</g>
<g filter="url(#filter3_d_1_1845)">
<path d="M81.0345 92.6743C79.8453 92.6743 78.847 92.4981 78.0395 92.1458C77.232 91.7934 76.6595 91.2723 76.3218 90.5822C75.9988 89.8922 75.9401 89.0627 76.1456 88.0937C76.2924 87.4771 76.5273 86.9192 76.8503 86.4201C77.188 85.9209 77.6138 85.4658 78.1276 85.0547C78.6561 84.6436 79.2654 84.2619 79.9554 83.9096C79.559 83.3517 79.3021 82.8231 79.1847 82.324C79.0819 81.8101 79.0819 81.3036 79.1847 80.8045C79.3315 80.0997 79.6545 79.4464 80.1536 78.8445C80.6528 78.2426 81.3135 77.7581 82.1356 77.391C82.9724 77.0093 83.9634 76.8185 85.1086 76.8185C86.1656 76.8185 87.0098 77.002 87.6411 77.369C88.2724 77.7361 88.7055 78.2205 88.9404 78.8225C89.19 79.4097 89.2414 80.041 89.0946 80.7164C88.9624 81.2889 88.7275 81.8101 88.3899 82.2799C88.0669 82.7351 87.6411 83.1535 87.1126 83.5352C86.5987 83.9169 85.9968 84.2913 85.3068 84.6583L86.9805 86.8165C87.0539 86.7284 87.2374 86.5082 87.531 86.1558C87.8393 85.8035 88.177 85.3043 88.544 84.6583C88.6321 84.4821 88.8009 84.394 89.0505 84.394H91.8253C91.9574 84.394 92.0529 84.4307 92.1116 84.5042C92.1703 84.5776 92.185 84.6803 92.1556 84.8125C92.0969 85.062 91.9428 85.3777 91.6932 85.7594C91.4583 86.1264 91.172 86.5228 90.8343 86.9486C90.4966 87.3597 90.1443 87.7561 89.7773 88.1378C89.4249 88.5195 89.1019 88.8498 88.8083 89.1288L90.7903 91.7494C90.8637 91.8522 90.8857 91.9623 90.8563 92.0797C90.8416 92.1825 90.7829 92.2706 90.6802 92.344C90.5921 92.4174 90.4893 92.4541 90.3718 92.4541H86.6281C86.4813 92.4541 86.3712 92.4321 86.2978 92.388C86.2244 92.3293 86.1656 92.2779 86.1216 92.2339L85.483 91.5072C84.7783 91.9476 84.0662 92.2559 83.3468 92.4321C82.6274 92.5936 81.8567 92.6743 81.0345 92.6743ZM81.7392 89.4371C82.1062 89.4371 82.4439 89.4004 82.7522 89.327C83.0605 89.2389 83.3615 89.0921 83.6551 88.8865L81.7172 86.4201C81.4089 86.5816 81.1226 86.7871 80.8583 87.0367C80.5941 87.2863 80.4252 87.5726 80.3518 87.8955C80.2931 88.2039 80.3225 88.4755 80.4399 88.7104C80.5574 88.9453 80.7335 89.1288 80.9684 89.2609C81.2033 89.3784 81.4603 89.4371 81.7392 89.4371ZM83.6551 82.324C83.9488 82.1918 84.213 82.0597 84.4479 81.9276C84.6828 81.7808 84.881 81.6193 85.0425 81.4431C85.204 81.2669 85.3068 81.0761 85.3508 80.8705C85.4242 80.5475 85.3802 80.2906 85.2187 80.0997C85.0572 79.9089 84.8076 79.8135 84.4699 79.8135C84.1763 79.8135 83.89 79.9089 83.6111 80.0997C83.3468 80.2906 83.1853 80.5475 83.1266 80.8705C83.0826 81.0761 83.0972 81.2963 83.1706 81.5312C83.2587 81.7661 83.4202 82.0303 83.6551 82.324Z" fill="#3C444F"/>
</g>
<defs>
<filter id="filter0_f_1_1845" x="0.0253201" y="23.3536" width="164.709" height="180.818" filterUnits="userSpaceOnUse" color-interpolation-filters="sRGB">
<feFlood flood-opacity="0" result="BackgroundImageFix"/>
<feBlend mode="normal" in="SourceGraphic" in2="BackgroundImageFix" result="shape"/>
<feGaussianBlur stdDeviation="9.86771" result="effect1_foregroundBlur_1_1845"/>
</filter>
<filter id="filter1_d_1_1845" x="37.8786" y="45.3694" width="94.928" height="26.1264" filterUnits="userSpaceOnUse" color-interpolation-filters="sRGB">
<feFlood flood-opacity="0" result="BackgroundImageFix"/>
<feColorMatrix in="SourceAlpha" type="matrix" values="0 0 0 0 0 0 0 0 0 0 0 0 0 0 0 0 0 0 127 0" result="hardAlpha"/>
<feOffset dy="2.67551"/>
<feGaussianBlur stdDeviation="2.22959"/>
<feComposite in2="hardAlpha" operator="out"/>
<feColorMatrix type="matrix" values="0 0 0 0 0 0 0 0 0 0 0 0 0 0 0 0 0 0 0.18 0"/>
<feBlend mode="normal" in2="BackgroundImageFix" result="effect1_dropShadow_1_1845"/>
<feBlend mode="normal" in="SourceGraphic" in2="effect1_dropShadow_1_1845" result="shape"/>
</filter>
<filter id="filter2_d_1_1845" x="37.7113" y="101.014" width="89.5204" height="25.6484" filterUnits="userSpaceOnUse" color-interpolation-filters="sRGB">
<feFlood flood-opacity="0" result="BackgroundImageFix"/>
<feColorMatrix in="SourceAlpha" type="matrix" values="0 0 0 0 0 0 0 0 0 0 0 0 0 0 0 0 0 0 127 0" result="hardAlpha"/>
<feOffset dy="2.67551"/>
<feGaussianBlur stdDeviation="2.22959"/>
<feComposite in2="hardAlpha" operator="out"/>
<feColorMatrix type="matrix" values="0 0 0 0 0 0 0 0 0 0 0 0 0 0 0 0 0 0 0.18 0"/>
<feBlend mode="normal" in2="BackgroundImageFix" result="effect1_dropShadow_1_1845"/>
<feBlend mode="normal" in="SourceGraphic" in2="effect1_dropShadow_1_1845" result="shape"/>
</filter>
<filter id="filter3_d_1_1845" x="71.3781" y="75.0348" width="25.2807" height="24.7742" filterUnits="userSpaceOnUse" color-interpolation-filters="sRGB">
<feFlood flood-opacity="0" result="BackgroundImageFix"/>
<feColorMatrix in="SourceAlpha" type="matrix" values="0 0 0 0 0 0 0 0 0 0 0 0 0 0 0 0 0 0 127 0" result="hardAlpha"/>
<feOffset dy="2.67551"/>
<feGaussianBlur stdDeviation="2.22959"/>
<feComposite in2="hardAlpha" operator="out"/>
<feColorMatrix type="matrix" values="0 0 0 0 0 0 0 0 0 0 0 0 0 0 0 0 0 0 0.18 0"/>
<feBlend mode="normal" in2="BackgroundImageFix" result="effect1_dropShadow_1_1845"/>
<feBlend mode="normal" in="SourceGraphic" in2="effect1_dropShadow_1_1845" result="shape"/>
</filter>
</defs>
</svg>
