<svg width="43" height="27" viewBox="0 0 43 27" fill="none" xmlns="http://www.w3.org/2000/svg">
<path d="M0.5 21.75H4.75C5.87891 21.75 6.875 20.8203 6.875 19.625V4.81641H0.5V21.75ZM3.6875 17.5664C4.21875 17.5664 4.75 18.0312 4.75 18.6289C4.75 19.1602 4.21875 19.6914 3.6875 19.6914C3.08984 19.6914 2.625 19.1602 2.625 18.6289C2.625 18.0312 3.08984 17.5664 3.6875 17.5664ZM23.6094 0.5C23.0781 0.5 22.6133 0.699219 22.2148 1.09766L15.6406 7.07422C14.5781 8.13672 14.5781 9.79688 15.5078 10.793C16.3711 11.6562 18.0977 11.9883 19.2266 10.9922C19.2266 10.9922 19.2266 10.9922 19.293 10.9922L24.5391 6.14453C25.0039 5.74609 25.668 5.74609 26.0664 6.21094C26.4648 6.60938 26.4648 7.27344 26 7.67188L24.2734 9.26562L33.9688 17.1016C34.1016 17.3008 34.3008 17.4336 34.4336 17.6328V4.75C31.7109 2.02734 28.0586 0.5 24.207 0.5H23.6094ZM22.6797 10.7266L20.6875 12.5195C18.6953 14.3125 15.707 14.1797 13.9141 12.2539C12.1875 10.3281 12.3203 7.27344 14.2461 5.48047L19.6914 0.5H19.2266C15.375 0.5 11.7227 2.09375 9 4.75V19.625H10.1953L16.1719 25.0703C18.0312 26.5977 20.6875 26.2656 22.1484 24.4727L23.3438 25.4688C24.4062 26.2656 26 26.1992 26.8633 25.1367L28.9219 22.5469L29.3203 22.8789C30.1836 23.6094 31.5117 23.4766 32.3086 22.5469L32.9062 21.75C33.6367 20.8203 33.5039 19.4922 32.5742 18.7617L22.6797 10.7266ZM36.625 4.81641V19.625C36.625 20.8203 37.5547 21.8164 38.6836 21.8164L43 21.75V4.81641H36.625ZM39.8125 19.625C39.2148 19.625 38.75 19.1602 38.75 18.6289C38.75 18.0312 39.2148 17.5664 39.8125 17.5664C40.3438 17.5664 40.875 18.0312 40.875 18.6289C40.875 19.1602 40.3438 19.625 39.8125 19.625Z" fill="#F47D31"/>
</svg>
