<svg width="73" height="72" viewBox="0 0 73 72" fill="none" xmlns="http://www.w3.org/2000/svg">
<g clip-path="url(#clip0_1_22161)">
<path d="M72.5 54C72.5 56.1217 71.6571 58.1566 70.1569 59.6569C68.6566 61.1571 66.6217 62 64.5 62H8.5C6.37827 62 4.34344 61.1571 2.84315 59.6569C1.34285 58.1566 0.5 56.1217 0.5 54V18C0.5 15.8783 1.34285 13.8434 2.84315 12.3431C4.34344 10.8429 6.37827 10 8.5 10H64.5C66.6217 10 68.6566 10.8429 70.1569 12.3431C71.6571 13.8434 72.5 15.8783 72.5 18V54Z" fill="#E30917"/>
<path d="M32.4999 48.0009C29.3173 48.0009 26.2651 46.7366 24.0147 44.4862C21.7642 42.2358 20.4999 39.1835 20.4999 36.0009C20.4999 32.8183 21.7642 29.7661 24.0147 27.5156C26.2651 25.2652 29.3173 24.0009 32.4999 24.0009C35.1199 24.0009 37.5399 24.8509 39.5139 26.2769C38.1377 24.7114 36.4434 23.4573 34.5442 22.5982C32.645 21.7391 30.5844 21.2948 28.4999 21.2949C24.5997 21.2949 20.8591 22.8443 18.1012 25.6022C15.3433 28.3601 13.7939 32.1006 13.7939 36.0009C13.7937 37.9323 14.1739 39.8448 14.9128 41.6293C15.6517 43.4137 16.7349 45.0351 18.1005 46.4009C19.4661 47.7667 21.0874 48.8501 22.8717 49.5893C24.6561 50.3285 26.5686 50.7089 28.4999 50.7089C32.8899 50.7089 36.8199 48.7749 39.5139 45.7249C37.4751 47.2055 35.0197 48.0023 32.4999 48.0009ZM40.3259 36.4609L45.2059 37.5849L45.6459 42.5709L48.2219 38.2789L53.1019 39.4009L49.8139 35.6249L52.3879 31.3309L47.7819 33.2909L44.4939 29.5129L44.9339 34.5009L40.3259 36.4609Z" fill="#EEEEEE"/>
</g>
<defs>
<clipPath id="clip0_1_22161">
<rect width="72" height="72" fill="white" transform="translate(0.5)"/>
</clipPath>
</defs>
</svg>
