<svg width="73" height="72" viewBox="0 0 73 72" fill="none" xmlns="http://www.w3.org/2000/svg">
<g clip-path="url(#clip0_1_22145)">
<path d="M64.5 10H18.5V62H64.5C66.6217 62 68.6566 61.1571 70.1569 59.6569C71.6571 58.1566 72.5 56.1217 72.5 54V18C72.5 15.8783 71.6571 13.8434 70.1569 12.3431C68.6566 10.8429 66.6217 10 64.5 10ZM45.5 50.944C41.5218 50.944 37.7064 49.3636 34.8934 46.5506C32.0804 43.7376 30.5 39.9222 30.5 35.944C30.5 28.504 35.922 22.346 43.026 21.164C40.3395 22.4088 38.1589 24.5339 36.8451 27.1873C35.5313 29.8407 35.1633 32.8633 35.802 35.7544C36.4407 38.6456 38.0477 41.2318 40.3569 43.0849C42.6662 44.938 45.5392 45.9467 48.5 45.944C50.9767 45.9428 53.4014 45.2337 55.4885 43.9004C57.5755 42.567 59.238 40.6648 60.28 38.418C59.098 45.524 52.94 50.944 45.5 50.944ZM55.72 30.096L53.294 34.14L52.878 29.442L48.282 28.386L52.622 26.538L52.208 21.84L55.304 25.398L59.644 23.55L57.22 27.596L60.316 31.154L55.72 30.096Z" fill="#004600"/>
<path d="M8.5 10C6.37827 10 4.34344 10.8429 2.84315 12.3431C1.34285 13.8434 0.5 15.8783 0.5 18L0.5 54C0.5 56.1217 1.34285 58.1566 2.84315 59.6569C4.34344 61.1571 6.37827 62 8.5 62H18.5V10H8.5Z" fill="#EEEEEE"/>
<path d="M59.644 23.55L55.304 25.398L52.208 21.84L52.622 26.538L48.282 28.386L52.878 29.442L53.294 34.14L55.72 30.096L60.316 31.154L57.22 27.596L59.644 23.55Z" fill="white"/>
<path d="M48.5 45.944C45.5392 45.9467 42.6662 44.938 40.3569 43.0849C38.0477 41.2318 36.4407 38.6456 35.802 35.7544C35.1633 32.8633 35.5313 29.8407 36.8451 27.1873C38.1589 24.5339 40.3395 22.4088 43.026 21.164C35.922 22.348 30.5 28.506 30.5 35.944C30.5 39.9222 32.0804 43.7376 34.8934 46.5506C37.7064 49.3636 41.5218 50.944 45.5 50.944C52.94 50.944 59.098 45.522 60.28 38.418C59.2384 40.6651 57.576 42.5675 55.4889 43.901C53.4017 45.2344 50.9768 45.9433 48.5 45.944Z" fill="white"/>
</g>
<defs>
<clipPath id="clip0_1_22145">
<rect width="72" height="72" fill="white" transform="translate(0.5)"/>
</clipPath>
</defs>
</svg>
