<svg width="73" height="72" viewBox="0 0 73 72" fill="none" xmlns="http://www.w3.org/2000/svg">
<g clip-path="url(#clip0_1_22153)">
<path d="M64.5 10H18.5V28H72.5V18C72.5 15.8783 71.6571 13.8434 70.1569 12.3431C68.6566 10.8429 66.6217 10 64.5 10Z" fill="#068241"/>
<path d="M18.5 28H72.5V44H18.5V28Z" fill="#EEEEEE"/>
<path d="M18.5 62H64.5C66.6217 62 68.6566 61.1571 70.1569 59.6569C71.6571 58.1566 72.5 56.1217 72.5 54V44H18.5V62Z" fill="#141414"/>
<path d="M8.5 10C6.37827 10 4.34344 10.8429 2.84315 12.3431C1.34285 13.8434 0.5 15.8783 0.5 18L0.5 54C0.5 56.1217 1.34285 58.1566 2.84315 59.6569C4.34344 61.1571 6.37827 62 8.5 62H18.5V10H8.5Z" fill="#EC2028"/>
</g>
<defs>
<clipPath id="clip0_1_22153">
<rect width="72" height="72" fill="white" transform="translate(0.5)"/>
</clipPath>
</defs>
</svg>
