<svg width="30" height="30" viewBox="0 0 30 30" fill="none" xmlns="http://www.w3.org/2000/svg">
<path d="M3.6875 0.375H13.582C14.7109 0.375 15.7734 0.839844 16.5703 1.63672L28.2578 13.3242C29.918 14.9844 29.918 17.707 28.2578 19.3672L19.4258 28.1992C17.7656 29.8594 15.043 29.8594 13.3828 28.1992L1.69531 16.5117C0.898438 15.7148 0.5 14.6523 0.5 13.5234V3.5625C0.5 1.83594 1.89453 0.375 3.6875 0.375ZM7.9375 9.9375C9.06641 9.9375 10.0625 9.00781 10.0625 7.8125C10.0625 6.68359 9.06641 5.6875 7.9375 5.6875C6.74219 5.6875 5.8125 6.68359 5.8125 7.8125C5.8125 9.00781 6.74219 9.9375 7.9375 9.9375Z" fill="#8100B4"/>
</svg>
