<svg width="35" height="35" viewBox="0 0 35 35" fill="none" xmlns="http://www.w3.org/2000/svg">
<path d="M32.375 12.2031C33.5703 12.8008 34.5 14.3945 34.5 16.1875C34.5 18.0469 33.5703 19.6406 32.375 20.2383V30C32.375 30.8633 31.8438 31.6602 31.0469 31.9922C30.25 32.3242 29.3203 32.125 28.7227 31.5273L25.8008 28.6055C22.6133 25.418 18.2969 23.625 13.7812 23.625H13.25V32.125C13.25 33.3203 12.2539 34.25 11.125 34.25H6.875C5.67969 34.25 4.75 33.3203 4.75 32.125V23.625C2.35938 23.625 0.5 21.7656 0.5 19.375V13C0.5 10.6758 2.35938 8.75 4.75 8.75H13.7812C18.2969 8.75 22.6133 6.95703 25.8008 3.83594L28.7227 0.914062C29.3203 0.316406 30.25 0.117188 31.0469 0.449219C31.8438 0.78125 32.375 1.57812 32.375 2.375V12.2031ZM13.7812 13H13.25V19.375H13.7812C19.0938 19.375 24.207 21.3672 28.125 24.9531V7.48828C24.207 11.0742 19.0938 13 13.7812 13Z" fill="#0AA6FF"/>
</svg>
