<svg width="161" height="33" viewBox="0 0 161 33" fill="none" xmlns="http://www.w3.org/2000/svg">
<path d="M23.538 32.2086C21.4813 32.2086 19.786 31.9307 18.452 31.3748C17.1179 30.819 16.1174 30.0871 15.4504 29.1792C14.7834 28.2713 14.4313 27.3079 14.3943 26.2888C14.3943 26.1221 14.4499 25.9831 14.561 25.8719C14.6907 25.7422 14.8389 25.6774 15.0057 25.6774H20.2862C20.5827 25.6774 20.805 25.7237 20.9533 25.8163C21.12 25.8905 21.296 26.0016 21.4813 26.1499C21.6666 26.2796 21.8519 26.4 22.0372 26.5112C22.241 26.6038 22.4633 26.6779 22.7042 26.7335C22.9636 26.7706 23.2415 26.7891 23.538 26.7891C24.1679 26.7891 24.6682 26.7242 25.0387 26.5945C25.4278 26.4463 25.6224 26.2518 25.6224 26.0109C25.6224 25.7886 25.5112 25.6033 25.2889 25.455C25.0851 25.3068 24.7238 25.1771 24.205 25.066C23.6862 24.9363 22.9636 24.8158 22.0372 24.7047C20.5734 24.5008 19.3042 24.1581 18.2296 23.6763C17.155 23.1946 16.3212 22.5368 15.7283 21.7031C15.1539 20.8508 14.8667 19.8132 14.8667 18.5903C14.8667 17.3304 15.2188 16.2187 15.9228 15.2553C16.6454 14.2918 17.6367 13.5414 18.8966 13.0041C20.1751 12.4668 21.6573 12.1981 23.3434 12.1981C24.733 12.1981 25.9651 12.3834 27.0398 12.7539C28.1144 13.106 29.0223 13.5784 29.7634 14.1714C30.5046 14.7457 31.0697 15.3664 31.4588 16.0334C31.8479 16.7005 32.0517 17.3397 32.0702 17.9511C32.0702 18.1179 32.0054 18.2661 31.8757 18.3958C31.7645 18.507 31.6348 18.5625 31.4866 18.5625H25.9281C25.6687 18.5625 25.4556 18.5255 25.2889 18.4514C25.1406 18.3773 24.9832 18.2661 24.8164 18.1179C24.7238 18.0252 24.5477 17.9233 24.2883 17.8121C24.0475 17.6825 23.7325 17.6176 23.3434 17.6176C22.8802 17.6176 22.5374 17.6917 22.3151 17.8399C22.1113 17.9696 22.0094 18.1549 22.0094 18.3958C22.0094 18.5625 22.0927 18.72 22.2595 18.8683C22.4263 19.0165 22.732 19.1462 23.1767 19.2574C23.6213 19.3685 24.2606 19.4797 25.0943 19.5909C26.9471 19.8132 28.4294 20.1745 29.5411 20.6748C30.6713 21.1565 31.4866 21.805 31.9868 22.6202C32.5056 23.4355 32.765 24.4453 32.765 25.6496C32.765 27.0022 32.3574 28.1694 31.5421 29.1514C30.7454 30.1334 29.6523 30.8931 28.2627 31.4304C26.873 31.9492 25.2981 32.2086 23.538 32.2086ZM35.5516 31.9307C35.3478 31.9307 35.1718 31.8566 35.0236 31.7083C34.8753 31.5601 34.8012 31.3841 34.8012 31.1803V13.2264C34.8012 13.0226 34.8753 12.8466 35.0236 12.6984C35.1718 12.5501 35.3478 12.476 35.5516 12.476H49.8091C50.0129 12.476 50.1889 12.5501 50.3372 12.6984C50.4854 12.8466 50.5595 13.0226 50.5595 13.2264V17.1451C50.5595 17.3489 50.4854 17.525 50.3372 17.6732C50.1889 17.8214 50.0129 17.8955 49.8091 17.8955H41.4714V19.6464H49.1977C49.4015 19.6464 49.5775 19.7206 49.7257 19.8688C49.874 20.017 49.9481 20.193 49.9481 20.3968V24.0098C49.9481 24.2137 49.874 24.3897 49.7257 24.5379C49.5775 24.6861 49.4015 24.7602 49.1977 24.7602H41.4714V26.5112H50.0314C50.2353 26.5112 50.4113 26.5853 50.5595 26.7335C50.7077 26.8817 50.7818 27.0577 50.7818 27.2615V31.1803C50.7818 31.3841 50.7077 31.5601 50.5595 31.7083C50.4113 31.8566 50.2353 31.9307 50.0314 31.9307H35.5516ZM58.9526 31.9307C58.7488 31.9307 58.5727 31.8566 58.4245 31.7083C58.2763 31.5601 58.2022 31.3841 58.2022 31.1803V25.7052L51.9489 13.3376C51.9304 13.3005 51.9118 13.2635 51.8933 13.2264C51.8933 13.1708 51.8933 13.1245 51.8933 13.0874C51.8933 12.9207 51.9489 12.7817 52.0601 12.6706C52.1898 12.5409 52.338 12.476 52.5047 12.476H57.7297C58.1003 12.476 58.3782 12.5687 58.5635 12.7539C58.7488 12.9392 58.8599 13.0782 58.897 13.1708L61.6762 18.7571L64.4555 13.1708C64.4925 13.0782 64.6037 12.9392 64.789 12.7539C64.9742 12.5687 65.2522 12.476 65.6227 12.476H70.8477C71.0145 12.476 71.1534 12.5409 71.2646 12.6706C71.3943 12.7817 71.4591 12.9207 71.4591 13.0874C71.4591 13.1245 71.4499 13.1708 71.4313 13.2264C71.4313 13.2635 71.4221 13.3005 71.4035 13.3376L65.1503 25.7052V31.1803C65.1503 31.3841 65.0762 31.5601 64.9279 31.7083C64.7797 31.8566 64.6037 31.9307 64.3999 31.9307H58.9526ZM136.543 32.2086C134.672 32.2086 133.051 31.9307 131.68 31.3748C130.309 30.819 129.234 29.9759 128.456 28.8457C127.678 27.7155 127.251 26.2888 127.177 24.5657C127.159 23.806 127.15 22.9815 127.15 22.0922C127.15 21.2028 127.159 20.3598 127.177 19.5631C127.251 17.9141 127.678 16.5522 128.456 15.4776C129.253 14.3844 130.346 13.5692 131.735 13.0319C133.125 12.476 134.728 12.1981 136.543 12.1981C138.007 12.1981 139.323 12.3648 140.49 12.6984C141.657 13.0133 142.658 13.458 143.491 14.0324C144.325 14.6068 144.964 15.2738 145.409 16.0334C145.854 16.7746 146.085 17.562 146.104 18.3958C146.104 18.5625 146.039 18.7108 145.909 18.8405C145.798 18.9516 145.659 19.0072 145.493 19.0072H139.35C139.147 19.0072 138.98 18.9794 138.85 18.9238C138.739 18.8683 138.637 18.7941 138.544 18.7015C138.47 18.6089 138.359 18.4792 138.211 18.3124C138.081 18.1271 137.887 17.9696 137.627 17.8399C137.368 17.6917 137.007 17.6176 136.543 17.6176C135.858 17.6176 135.339 17.7936 134.987 18.1457C134.635 18.4792 134.44 18.998 134.403 19.702C134.348 21.2399 134.348 22.8148 134.403 24.4267C134.44 25.2605 134.654 25.8627 135.043 26.2332C135.432 26.6038 135.969 26.7891 136.655 26.7891C137.118 26.7891 137.525 26.7242 137.877 26.5945C138.229 26.4648 138.507 26.2518 138.711 25.9553C138.915 25.6589 139.017 25.279 139.017 24.8158V24.788H137.711C137.507 24.788 137.331 24.7139 137.183 24.5657C137.034 24.4175 136.96 24.2414 136.96 24.0376V20.9527C136.96 20.7489 137.034 20.5729 137.183 20.4246C137.331 20.2764 137.507 20.2023 137.711 20.2023H145.354C145.557 20.2023 145.733 20.2764 145.882 20.4246C146.03 20.5729 146.104 20.7489 146.104 20.9527V24.5657C146.104 26.2332 145.696 27.6321 144.881 28.7623C144.066 29.8926 142.936 30.7541 141.49 31.347C140.064 31.9214 138.415 32.2086 136.543 32.2086Z" fill="#074FFE"/>
<path d="M76.0438 31.9307C75.6732 31.9307 75.3768 31.8195 75.1544 31.5972C74.9321 31.3563 74.8024 31.1154 74.7653 30.8746L72.2084 13.1708C72.2084 13.1523 72.2084 13.143 72.2084 13.143C72.2084 13.1245 72.2084 13.106 72.2084 13.0874C72.2084 12.9207 72.264 12.7817 72.3752 12.6706C72.5049 12.5409 72.6531 12.476 72.8199 12.476H77.9892C78.6007 12.476 78.9342 12.7261 78.9898 13.2264L79.9347 21.0639L81.0742 17.5898C81.1113 17.4601 81.1946 17.2934 81.3243 17.0895C81.454 16.8857 81.6856 16.7838 82.0191 16.7838H84.854C85.1875 16.7838 85.4191 16.8857 85.5488 17.0895C85.6785 17.2934 85.7618 17.4601 85.7989 17.5898L86.9384 21.0361L87.8833 13.2264C87.9389 12.7261 88.2724 12.476 88.8838 12.476H94.0532C94.22 12.476 94.3589 12.5409 94.4701 12.6706C94.5998 12.7817 94.6647 12.9207 94.6647 13.0874C94.6647 13.106 94.6647 13.1245 94.6647 13.143C94.6647 13.143 94.6647 13.1523 94.6647 13.1708L92.1078 30.8746C92.0892 31.1154 91.9595 31.3563 91.7187 31.5972C91.4963 31.8195 91.1999 31.9307 90.8293 31.9307H86.855C86.4844 31.9307 86.2065 31.838 86.0212 31.6527C85.8545 31.4489 85.7526 31.2914 85.7155 31.1803L83.4365 25.4828L81.1576 31.1803C81.1205 31.2914 81.0093 31.4489 80.8241 31.6527C80.6573 31.838 80.3887 31.9307 80.0181 31.9307H76.0438ZM97.623 31.9307C97.4192 31.9307 97.2432 31.8566 97.095 31.7083C96.9467 31.5601 96.8726 31.3841 96.8726 31.1803V13.2264C96.8726 13.0226 96.9467 12.8466 97.095 12.6984C97.2432 12.5501 97.4192 12.476 97.623 12.476H103.293C103.496 12.476 103.672 12.5501 103.821 12.6984C103.969 12.8466 104.043 13.0226 104.043 13.2264V31.1803C104.043 31.3841 103.969 31.5601 103.821 31.7083C103.672 31.8566 103.496 31.9307 103.293 31.9307H97.623ZM107.855 31.9307C107.651 31.9307 107.475 31.8566 107.327 31.7083C107.179 31.5601 107.105 31.3841 107.105 31.1803V13.2264C107.105 13.0226 107.179 12.8466 107.327 12.6984C107.475 12.5501 107.651 12.476 107.855 12.476H112.246C112.617 12.476 112.886 12.5594 113.052 12.7261C113.219 12.8929 113.33 13.0226 113.386 13.1152L118.083 20.8137V13.2264C118.083 13.0226 118.157 12.8466 118.305 12.6984C118.453 12.5501 118.629 12.476 118.833 12.476H123.864C124.067 12.476 124.243 12.5501 124.392 12.6984C124.54 12.8466 124.614 13.0226 124.614 13.2264V31.1803C124.614 31.3841 124.54 31.5601 124.392 31.7083C124.243 31.8566 124.067 31.9307 123.864 31.9307H119.472C119.102 31.9307 118.833 31.8473 118.666 31.6805C118.5 31.4953 118.388 31.3656 118.333 31.2914L113.636 24.2044V31.1803C113.636 31.3841 113.562 31.5601 113.414 31.7083C113.265 31.8566 113.089 31.9307 112.886 31.9307H107.855Z" fill="#F47D31"/>
<path d="M99.4956 0.318756L98.3333 2.68804L95.7328 3.0692C95.2665 3.1372 95.0796 3.7152 95.4178 4.04626L97.2992 5.88943L96.8542 8.49314C96.7741 8.96377 97.2671 9.3163 97.6801 9.09619L100.006 7.86682L102.333 9.09619C102.746 9.31451 103.239 8.96377 103.159 8.49314L102.714 5.88943L104.595 4.04626C104.933 3.7152 104.746 3.1372 104.28 3.0692L101.68 2.68804L100.517 0.318756C100.309 -0.103563 99.7056 -0.108932 99.4956 0.318756Z" fill="#F47D31"/>
</svg>
