<svg width="167" height="40" viewBox="0 0 167 40" fill="none" xmlns="http://www.w3.org/2000/svg">
<path d="M12.317 39.512C9.74618 39.512 7.62701 39.1646 5.95947 38.4697C4.29193 37.7749 3.04127 36.8601 2.2075 35.7252C1.37373 34.5904 0.933688 33.3861 0.887367 32.1122C0.887367 31.9038 0.956848 31.7301 1.09581 31.5911C1.25793 31.429 1.44321 31.348 1.65166 31.348H8.25234C8.62291 31.348 8.90083 31.4059 9.08611 31.5217C9.29455 31.6143 9.51458 31.7533 9.74618 31.9385C9.97778 32.1007 10.2094 32.2512 10.441 32.3902C10.6958 32.506 10.9737 32.5986 11.2748 32.6681C11.599 32.7144 11.9464 32.7376 12.317 32.7376C13.1044 32.7376 13.7298 32.6565 14.193 32.4944C14.6793 32.3091 14.9225 32.0659 14.9225 31.7648C14.9225 31.4869 14.7835 31.2553 14.5056 31.07C14.2509 30.8847 13.7992 30.7226 13.1507 30.5837C12.5023 30.4215 11.599 30.271 10.441 30.132C8.61133 29.8773 7.02485 29.4488 5.68155 28.8466C4.33825 28.2445 3.29604 27.4223 2.55491 26.3801C1.83694 25.3147 1.47795 24.0177 1.47795 22.4891C1.47795 20.9142 1.918 19.5246 2.79809 18.3203C3.70134 17.116 4.94042 16.178 6.51532 15.5063C8.11338 14.8347 9.9662 14.4988 12.0738 14.4988C13.8108 14.4988 15.351 14.7304 16.6943 15.1936C18.0376 15.6337 19.1724 16.2243 20.0988 16.9654C21.0252 17.6834 21.7316 18.4592 22.218 19.293C22.7044 20.1268 22.9591 20.9258 22.9823 21.6901C22.9823 21.8986 22.9012 22.0838 22.7391 22.246C22.6001 22.3849 22.438 22.4544 22.2527 22.4544H15.3047C14.9804 22.4544 14.7141 22.4081 14.5056 22.3154C14.3203 22.2228 14.1235 22.0838 13.915 21.8986C13.7992 21.7827 13.5792 21.6554 13.255 21.5164C12.9539 21.3543 12.5602 21.2732 12.0738 21.2732C11.4948 21.2732 11.0663 21.3659 10.7884 21.5511C10.5336 21.7133 10.4062 21.9449 10.4062 22.246C10.4062 22.4544 10.5105 22.6513 10.7189 22.8365C10.9274 23.0218 11.3095 23.1839 11.8653 23.3229C12.4212 23.4619 13.2202 23.6008 14.2624 23.7398C16.5785 24.0177 18.4313 24.4693 19.8209 25.0947C21.2337 25.6968 22.2527 26.5075 22.8781 27.5265C23.5266 28.5456 23.8508 29.8078 23.8508 31.3132C23.8508 33.0039 23.3413 34.463 22.3222 35.6905C21.3263 36.918 19.9599 37.8676 18.2228 38.5392C16.4858 39.1877 14.5172 39.512 12.317 39.512ZM27.3341 39.1646C27.0793 39.1646 26.8593 39.0719 26.674 38.8866C26.4887 38.7013 26.3961 38.4813 26.3961 38.2266V15.7842C26.3961 15.5295 26.4887 15.3094 26.674 15.1242C26.8593 14.9389 27.0793 14.8462 27.3341 14.8462H45.1559C45.4107 14.8462 45.6307 14.9389 45.816 15.1242C46.0013 15.3094 46.0939 15.5295 46.0939 15.7842V20.6826C46.0939 20.9374 46.0013 21.1574 45.816 21.3427C45.6307 21.528 45.4107 21.6206 45.1559 21.6206H34.7338V23.8093H44.3916C44.6464 23.8093 44.8664 23.9019 45.0517 24.0872C45.237 24.2725 45.3296 24.4925 45.3296 24.7473V29.2635C45.3296 29.5183 45.237 29.7383 45.0517 29.9236C44.8664 30.1089 44.6464 30.2015 44.3916 30.2015H34.7338V32.3902H45.4338C45.6886 32.3902 45.9086 32.4828 46.0939 32.6681C46.2792 32.8534 46.3718 33.0734 46.3718 33.3282V38.2266C46.3718 38.4813 46.2792 38.7013 46.0939 38.8866C45.9086 39.0719 45.6886 39.1646 45.4338 39.1646H27.3341ZM56.5852 39.1646C56.3305 39.1646 56.1105 39.0719 55.9252 38.8866C55.7399 38.7013 55.6473 38.4813 55.6473 38.2266V31.3827L47.8307 15.9232C47.8075 15.8769 47.7843 15.8306 47.7612 15.7842C47.7612 15.7148 47.7612 15.6569 47.7612 15.6105C47.7612 15.4021 47.8307 15.2284 47.9696 15.0894C48.1317 14.9273 48.317 14.8462 48.5255 14.8462H55.0567C55.5199 14.8462 55.8673 14.962 56.0989 15.1936C56.3305 15.4252 56.4694 15.599 56.5158 15.7148L59.9898 22.6976L63.4639 15.7148C63.5102 15.599 63.6491 15.4252 63.8807 15.1936C64.1123 14.962 64.4597 14.8462 64.923 14.8462H71.4542C71.6626 14.8462 71.8363 14.9273 71.9753 15.0894C72.1374 15.2284 72.2184 15.4021 72.2184 15.6105C72.2184 15.6569 72.2069 15.7148 72.1837 15.7842C72.1837 15.8306 72.1721 15.8769 72.149 15.9232L64.3324 31.3827V38.2266C64.3324 38.4813 64.2397 38.7013 64.0544 38.8866C63.8692 39.0719 63.6491 39.1646 63.3944 39.1646H56.5852ZM77.9493 39.1646C77.4861 39.1646 77.1155 39.0256 76.8376 38.7477C76.5596 38.4466 76.3975 38.1455 76.3512 37.8444L73.1551 15.7148C73.1551 15.6916 73.1551 15.68 73.1551 15.68C73.1551 15.6569 73.1551 15.6337 73.1551 15.6105C73.1551 15.4021 73.2246 15.2284 73.3635 15.0894C73.5256 14.9273 73.7109 14.8462 73.9194 14.8462H80.3811C81.1454 14.8462 81.5623 15.1589 81.6318 15.7842L82.8129 25.581L84.2373 21.2385C84.2836 21.0764 84.3878 20.8679 84.5499 20.6132C84.7121 20.3584 85.0016 20.231 85.4185 20.231H88.962C89.3789 20.231 89.6684 20.3584 89.8305 20.6132C89.9926 20.8679 90.0968 21.0764 90.1432 21.2385L91.5675 25.5463L92.7487 15.7842C92.8182 15.1589 93.2351 14.8462 93.9993 14.8462H100.461C100.67 14.8462 100.843 14.9273 100.982 15.0894C101.144 15.2284 101.225 15.4021 101.225 15.6105C101.225 15.6337 101.225 15.6569 101.225 15.68C101.225 15.68 101.225 15.6916 101.225 15.7148L98.0292 37.8444C98.0061 38.1455 97.844 38.4466 97.5429 38.7477C97.2649 39.0256 96.8944 39.1646 96.4312 39.1646H91.4633C91.0001 39.1646 90.6527 39.0487 90.4211 38.8171C90.2126 38.5624 90.0853 38.3655 90.0389 38.2266L87.1902 31.1048L84.3415 38.2266C84.2952 38.3655 84.1562 38.5624 83.9246 38.8171C83.7162 39.0487 83.3804 39.1646 82.9171 39.1646H77.9493ZM104.923 39.1646C104.669 39.1646 104.449 39.0719 104.263 38.8866C104.078 38.7013 103.985 38.4813 103.985 38.2266V15.7842C103.985 15.5295 104.078 15.3094 104.263 15.1242C104.449 14.9389 104.669 14.8462 104.923 14.8462H112.01C112.265 14.8462 112.485 14.9389 112.67 15.1242C112.856 15.3094 112.948 15.5295 112.948 15.7842V38.2266C112.948 38.4813 112.856 38.7013 112.67 38.8866C112.485 39.0719 112.265 39.1646 112.01 39.1646H104.923ZM117.713 39.1646C117.459 39.1646 117.239 39.0719 117.053 38.8866C116.868 38.7013 116.776 38.4813 116.776 38.2266V15.7842C116.776 15.5295 116.868 15.3094 117.053 15.1242C117.239 14.9389 117.459 14.8462 117.713 14.8462H123.202C123.666 14.8462 124.002 14.9505 124.21 15.1589C124.418 15.3673 124.557 15.5295 124.627 15.6453L130.498 25.2684V15.7842C130.498 15.5295 130.591 15.3094 130.776 15.1242C130.961 14.9389 131.181 14.8462 131.436 14.8462H137.724C137.979 14.8462 138.199 14.9389 138.384 15.1242C138.569 15.3094 138.662 15.5295 138.662 15.7842V38.2266C138.662 38.4813 138.569 38.7013 138.384 38.8866C138.199 39.0719 137.979 39.1646 137.724 39.1646H132.235C131.772 39.1646 131.436 39.0603 131.228 38.8519C131.019 38.6203 130.88 38.4582 130.811 38.3655L124.94 29.5067V38.2266C124.94 38.4813 124.847 38.7013 124.662 38.8866C124.476 39.0719 124.256 39.1646 124.002 39.1646H117.713ZM153.574 39.512C151.235 39.512 149.208 39.1646 147.494 38.4697C145.78 37.7749 144.437 36.7211 143.464 35.3084C142.492 33.8956 141.959 32.1122 141.866 29.9583C141.843 29.0088 141.832 27.9781 141.832 26.8664C141.832 25.7547 141.843 24.7009 141.866 23.7051C141.959 21.6438 142.492 19.9415 143.464 18.5982C144.46 17.2318 145.827 16.2127 147.564 15.5411C149.301 14.8462 151.304 14.4988 153.574 14.4988C155.403 14.4988 157.048 14.7073 158.507 15.1242C159.966 15.5179 161.217 16.0737 162.259 16.7917C163.301 17.5097 164.1 18.3434 164.656 19.293C165.212 20.2194 165.501 21.2037 165.524 22.246C165.524 22.4544 165.443 22.6397 165.281 22.8018C165.142 22.9408 164.969 23.0102 164.76 23.0102H157.083C156.828 23.0102 156.619 22.9755 156.457 22.906C156.318 22.8365 156.191 22.7439 156.075 22.6281C155.982 22.5123 155.843 22.3502 155.658 22.1417C155.496 21.9101 155.253 21.7133 154.929 21.5511C154.604 21.3659 154.153 21.2732 153.574 21.2732C152.717 21.2732 152.068 21.4932 151.628 21.9333C151.188 22.3502 150.945 22.9987 150.899 23.8788C150.829 25.8011 150.829 27.7697 150.899 29.7846C150.945 30.8268 151.211 31.5796 151.698 32.0428C152.184 32.506 152.856 32.7376 153.713 32.7376C154.292 32.7376 154.801 32.6565 155.241 32.4944C155.681 32.3323 156.029 32.0659 156.284 31.6954C156.538 31.3248 156.666 30.85 156.666 30.271V30.2363H155.033C154.778 30.2363 154.558 30.1436 154.373 29.9583C154.188 29.7731 154.095 29.553 154.095 29.2983V25.4421C154.095 25.1873 154.188 24.9673 154.373 24.782C154.558 24.5967 154.778 24.5041 155.033 24.5041H164.587C164.841 24.5041 165.061 24.5967 165.247 24.782C165.432 24.9673 165.524 25.1873 165.524 25.4421V29.9583C165.524 32.0428 165.015 33.7914 163.996 35.2041C162.977 36.6169 161.564 37.6939 159.758 38.435C157.974 39.153 155.913 39.512 153.574 39.512Z" fill="white"/>
<path d="M107.444 0.398445L105.992 3.36005L102.741 3.8365C102.158 3.9215 101.924 4.64401 102.347 5.05782L104.699 7.36179L104.143 10.6164C104.043 11.2047 104.659 11.6454 105.175 11.3702L108.083 9.83352L110.991 11.3702C111.507 11.6431 112.123 11.2047 112.023 10.6164L111.467 7.36179L113.819 5.05782C114.242 4.64401 114.008 3.9215 113.425 3.8365L110.174 3.36005L108.722 0.398445C108.461 -0.129454 107.707 -0.136165 107.444 0.398445Z" fill="white"/>
</svg>
