<svg width="1440" height="867" viewBox="0 0 1440 867" fill="none" xmlns="http://www.w3.org/2000/svg">
<path opacity="0.5" fill-rule="evenodd" clip-rule="evenodd" d="M-458.441 836.033L-371.53 794.291C-284.618 752.55 -110.794 669.067 63.0292 648.196C236.853 627.326 410.676 669.067 584.5 710.809C758.323 752.55 932.147 794.291 1105.97 773.421C1279.79 752.55 1453.62 669.067 1540.53 627.326L1627.44 585.584V1.87311H1540.53C1453.62 1.87311 1279.79 1.87311 1105.97 1.87311C932.147 1.87311 758.323 1.87311 584.5 1.87311C410.676 1.87311 236.853 1.87311 63.0292 1.87311C-110.794 1.87311 -284.618 1.87311 -371.53 1.87311H-458.441V836.033Z" fill="url(#paint0_linear_1_5460)"/>
<path opacity="0.5" fill-rule="evenodd" clip-rule="evenodd" d="M-499.61 867L-409.268 823.615C-318.925 780.23 -138.24 693.461 42.4449 671.768C223.13 650.076 403.815 693.461 584.5 736.846C765.185 780.23 945.87 823.615 1126.56 801.923C1307.24 780.23 1487.93 693.461 1578.27 650.076L1668.61 606.691V0H1578.27C1487.93 0 1307.24 0 1126.56 0C945.87 0 765.185 0 584.5 0C403.815 0 223.13 0 42.4449 0C-138.24 0 -318.925 0 -409.268 0H-499.61V867Z" fill="url(#paint1_linear_1_5460)"/>
<defs>
<linearGradient id="paint0_linear_1_5460" x1="1627.44" y1="490.017" x2="1434.51" y2="-232.765" gradientUnits="userSpaceOnUse">
<stop stop-color="#FFF1F1"/>
<stop offset="1" stop-color="#E9F8FB"/>
</linearGradient>
<linearGradient id="paint1_linear_1_5460" x1="1668.61" y1="507.362" x2="1468.1" y2="-243.885" gradientUnits="userSpaceOnUse">
<stop stop-color="#FFF1F1"/>
<stop offset="1" stop-color="#E9F8FB"/>
</linearGradient>
</defs>
</svg>
