<svg width="1440" height="827" viewBox="0 0 1440 827" fill="none" xmlns="http://www.w3.org/2000/svg">
<path fill-rule="evenodd" clip-rule="evenodd" d="M1485 797L1406.46 759.296C1327.92 721.593 1170.83 646.185 1013.75 627.333C856.667 608.481 699.583 646.185 542.5 683.889C385.417 721.593 228.333 759.296 71.25 740.444C-85.8334 721.593 -242.917 646.185 -321.458 608.481L-400 570.778V-2H-321.458C-242.917 -2 -85.8334 -2 71.25 -2C228.333 -2 385.417 -2 542.5 -2C699.583 -2 856.667 -2 1013.75 -2C1170.83 -2 1327.92 -2 1406.46 -2H1485V797Z" fill="url(#paint0_linear_227_8557)"/>
<path opacity="0.5" fill-rule="evenodd" clip-rule="evenodd" d="M1485 827L1406.46 789.296C1327.92 751.593 1170.83 676.185 1013.75 657.333C856.667 638.481 699.583 676.185 542.5 713.889C385.417 751.593 228.333 789.296 71.25 770.444C-85.8334 751.593 -242.917 676.185 -321.458 638.481L-400 600.778V28H-321.458C-242.917 28 -85.8334 28 71.25 28C228.333 28 385.417 28 542.5 28C699.583 28 856.667 28 1013.75 28C1170.83 28 1327.92 28 1406.46 28H1485V827Z" fill="url(#paint1_linear_227_8557)"/>
<defs>
<linearGradient id="paint0_linear_227_8557" x1="-400.002" y1="484.456" x2="-225.803" y2="-168.45" gradientUnits="userSpaceOnUse">
<stop stop-color="#FFF1F1"/>
<stop offset="1" stop-color="#E9F8FB"/>
</linearGradient>
<linearGradient id="paint1_linear_227_8557" x1="-400.002" y1="514.456" x2="-225.803" y2="-138.45" gradientUnits="userSpaceOnUse">
<stop stop-color="#FFF1F1"/>
<stop offset="1" stop-color="#E9F8FB"/>
</linearGradient>
</defs>
</svg>
